<svg xmlns="http://www.w3.org/2000/svg" viewBox="0 0 145 40" width="145" height="40">
	<style>
		tspan { white-space:pre }
		.shp0 { fill: #7f0000;stroke: #7f0000;stroke-width: 0.107 } 
		.shp1 { fill: #333333;stroke: #7f0000;stroke-linecap:round;stroke-width: 1.069 } 
		.shp2 { fill: #7f0000;stroke: #7f0000;stroke-linecap:round;stroke-width: 1.069 } 
		.shp3 { fill: none;stroke: #7f0000;stroke-linecap:round;stroke-width: 0.107 } 
		.shp4 { fill: none;stroke: #7f0000;stroke-width: 0.107 } 
		.shp5 { fill: #333333;stroke: #7f0000;stroke-linecap:round;stroke-width: 0.068 } 
		.shp6 { fill: #7f0000;stroke: #7f0000;stroke-linecap:round;stroke-width: 0.641 } 
		.shp7 { fill: #7f0000;stroke: #7f0000;stroke-linecap:round;stroke-width: 0.107 } 
		.shp8 { fill: none;stroke: #b5b5b5;stroke-linecap:round;stroke-opacity:0.149;stroke-width: 3.218 } 
		.shp9 { fill: none;stroke: #1c1c15;stroke-linecap:round;stroke-opacity:0.206;stroke-width: 2.138 } 
		.shp10 { fill: none;stroke: #000000;stroke-linecap:round;stroke-width: 2.138 } 
		.shp11 { fill: none;stroke: #000000;stroke-width: 2.138 } 
		.txt12 { font-size: 18px;fill: #ffffff;font-family: "Quicksand";font-weight: 700 } 
	</style>
	<g id="layer10">
	</g>
	<g id="layer11">
		<g id="g5890">
			<path id="path4596" class="shp0" d="M3.24 13.44C5.2 15.22 7.74 16.35 10.37 16.64C13 16.93 15.72 16.37 18.02 15.06C18.51 14.78 18.99 14.46 19.5 14.22C20.54 13.73 21.72 13.54 22.86 13.69C23.99 13.84 25.08 14.32 25.96 15.06C25.92 15.09 25.89 15.13 25.88 15.17C25.87 15.22 25.87 15.27 25.89 15.31C25.9 15.33 25.91 15.34 25.91 15.35C25.91 15.35 25.91 15.36 25.91 15.37C25.9 15.37 25.9 15.38 25.89 15.38C25.89 15.38 25.88 15.38 25.88 15.38C25.87 15.38 25.87 15.38 25.86 15.38C25.86 15.38 25.85 15.37 25.85 15.37C25.84 15.37 25.83 15.38 25.83 15.38C25.83 15.38 25.82 15.39 25.82 15.39C25.82 15.4 25.82 15.41 25.82 15.41C25.83 15.42 25.83 15.42 25.83 15.43C25.83 15.43 25.83 15.44 25.83 15.44C25.83 15.45 25.83 15.46 25.82 15.46C25.81 15.47 25.81 15.47 25.8 15.48C25.8 15.48 25.79 15.49 25.78 15.49C25.78 15.5 25.77 15.5 25.77 15.51C25.76 15.52 25.76 15.53 25.76 15.54C25.76 15.55 25.76 15.56 25.77 15.57C25.77 15.58 25.77 15.59 25.77 15.61C25.77 15.62 25.77 15.63 25.77 15.64C25.76 15.64 25.76 15.65 25.75 15.65C25.74 15.66 25.74 15.66 25.73 15.67C25.72 15.67 25.72 15.68 25.71 15.68C25.71 15.69 25.7 15.69 25.7 15.7C25.7 15.71 25.7 15.71 25.7 15.72C25.7 15.72 25.71 15.73 25.71 15.74C25.71 15.74 25.71 15.75 25.71 15.75C25.71 15.76 25.71 15.76 25.71 15.76C25.71 15.76 25.7 15.77 25.7 15.77C25.7 15.77 25.69 15.77 25.69 15.77C25.68 15.77 25.67 15.77 25.67 15.77C25.66 15.76 25.66 15.76 25.65 15.76C25.65 15.76 25.65 15.76 25.64 15.76C25.64 15.76 25.64 15.76 25.64 15.77C25.63 15.77 25.63 15.77 25.63 15.77C25.63 15.78 25.63 15.78 25.63 15.78C25.63 15.79 25.63 15.79 25.63 15.8C25.64 15.81 25.64 15.82 25.64 15.83L25.64 15.9C25.64 15.9 25.64 15.91 25.63 15.92C25.63 15.93 25.63 15.94 25.62 15.94C25.61 15.94 25.6 15.95 25.6 15.95C25.59 15.95 25.58 15.96 25.57 15.96C25.56 15.97 25.56 15.97 25.56 15.98C25.56 15.99 25.56 16 25.56 16.01C25.56 16.03 25.57 16.04 25.58 16.06C25.59 16.08 25.6 16.09 25.6 16.11C25.6 16.12 25.6 16.13 25.59 16.14C25.59 16.15 25.58 16.15 25.57 16.15C25.57 16.16 25.56 16.16 25.56 16.15C25.55 16.15 25.55 16.15 25.54 16.15C25.53 16.15 25.53 16.15 25.52 16.15C25.52 16.15 25.51 16.15 25.51 16.15C25.5 16.16 25.5 16.16 25.5 16.17C25.49 16.17 25.49 16.18 25.5 16.19C25.5 16.2 25.5 16.21 25.51 16.22C25.51 16.23 25.52 16.24 25.52 16.25C25.52 16.26 25.52 16.26 25.52 16.27C25.52 16.27 25.51 16.28 25.51 16.28C25.5 16.29 25.5 16.29 25.49 16.29C25.49 16.29 25.48 16.29 25.48 16.29C25.47 16.28 25.46 16.28 25.46 16.28C25.45 16.28 25.45 16.28 25.44 16.28C25.43 16.29 25.43 16.29 25.42 16.3C25.42 16.31 25.42 16.32 25.42 16.33C25.42 16.35 25.43 16.36 25.44 16.38C25.45 16.4 25.47 16.41 25.47 16.43C25.47 16.44 25.47 16.45 25.46 16.46C25.46 16.47 25.45 16.47 25.44 16.48C25.44 16.48 25.43 16.48 25.43 16.48C25.42 16.48 25.42 16.48 25.41 16.47C25.41 16.47 25.4 16.47 25.39 16.47C25.39 16.47 25.38 16.47 25.38 16.48C25.37 16.48 25.37 16.49 25.37 16.49C25.37 16.5 25.37 16.5 25.37 16.51C25.37 16.52 25.38 16.53 25.38 16.54C25.39 16.55 25.39 16.56 25.39 16.58C25.4 16.58 25.39 16.59 25.39 16.59C25.39 16.6 25.38 16.6 25.38 16.61C25.37 16.61 25.37 16.61 25.36 16.61C25.36 16.61 25.35 16.6 25.35 16.6C25.34 16.6 25.33 16.6 25.33 16.6C25.33 16.6 25.32 16.6 25.32 16.6C25.32 16.6 25.32 16.6 25.31 16.61C25.31 16.61 25.31 16.61 25.31 16.61C25.31 16.62 25.31 16.62 25.31 16.62C25.31 16.63 25.31 16.63 25.31 16.64C25.32 16.64 25.32 16.65 25.32 16.65C25.32 16.66 25.32 16.66 25.32 16.66C25.32 16.67 25.32 16.67 25.31 16.67C25.31 16.67 25.31 16.67 25.31 16.68C25.3 16.68 25.3 16.68 25.3 16.68C25.29 16.68 25.29 16.68 25.28 16.67C25.28 16.67 25.27 16.67 25.27 16.67C25.26 16.67 25.25 16.67 25.25 16.67C25.24 16.67 25.24 16.68 25.24 16.68C25.23 16.69 25.23 16.69 25.23 16.7C25.24 16.71 25.24 16.72 25.25 16.73C25.26 16.75 25.26 16.76 25.26 16.77C25.26 16.77 25.26 16.78 25.26 16.79C25.26 16.79 25.26 16.8 25.25 16.8C25.24 16.8 25.24 16.8 25.23 16.8C25.23 16.8 25.22 16.8 25.22 16.8C25.21 16.8 25.21 16.79 25.2 16.79C25.19 16.79 25.19 16.8 25.18 16.8C25.18 16.8 25.18 16.81 25.18 16.81C25.18 16.82 25.18 16.83 25.18 16.83C25.18 16.84 25.18 16.84 25.18 16.85C25.18 16.85 25.19 16.86 25.18 16.86C25.18 16.87 25.18 16.88 25.17 16.88C25.17 16.89 25.16 16.89 25.16 16.9C25.15 16.9 25.14 16.91 25.14 16.91C25.13 16.92 25.12 16.92 25.12 16.93C25.12 16.94 25.12 16.95 25.12 16.96C25.12 16.97 25.13 16.98 25.13 17C25.14 17.01 25.14 17.02 25.14 17.03C25.14 17.03 25.14 17.04 25.13 17.05C25.13 17.05 25.13 17.06 25.12 17.06C25.12 17.06 25.11 17.06 25.1 17.06C25.1 17.06 25.09 17.06 25.09 17.06C25.08 17.06 25.08 17.06 25.07 17.06C25.07 17.06 25.06 17.06 25.06 17.06C25.05 17.06 25.04 17.07 25.04 17.08C25.03 17.08 25.03 17.09 25.03 17.1C25.03 17.12 25.05 17.14 25.06 17.15C25.07 17.17 25.08 17.19 25.08 17.21C25.08 17.22 25.08 17.23 25.08 17.23C25.07 17.24 25.06 17.25 25.06 17.25C25.05 17.25 25.04 17.25 25.04 17.25C25.03 17.25 25.03 17.25 25.02 17.25C25.02 17.25 25.01 17.25 25.01 17.25C25 17.25 25 17.25 24.99 17.25C24.99 17.25 24.98 17.26 24.98 17.27C24.98 17.27 24.98 17.28 24.98 17.28C24.98 17.3 24.99 17.31 24.99 17.32C25 17.33 25.01 17.34 25.01 17.35C25.01 17.36 25.01 17.36 25 17.37C25 17.37 25 17.38 24.99 17.38C24.99 17.38 24.98 17.38 24.97 17.38C24.97 17.38 24.96 17.38 24.96 17.38C24.95 17.38 24.95 17.37 24.94 17.37C24.94 17.38 24.93 17.38 24.93 17.38C24.92 17.38 24.92 17.39 24.92 17.4C24.92 17.4 24.92 17.41 24.92 17.41C24.92 17.42 24.92 17.42 24.93 17.43C24.93 17.43 24.93 17.44 24.93 17.44C24.93 17.45 24.92 17.46 24.91 17.46C24.91 17.47 24.9 17.47 24.89 17.48C24.89 17.48 24.88 17.48 24.87 17.49C24.87 17.5 24.86 17.5 24.86 17.51C24.86 17.51 24.86 17.52 24.86 17.53C24.86 17.53 24.87 17.54 24.87 17.54C24.87 17.55 24.87 17.55 24.87 17.56C24.87 17.56 24.87 17.57 24.86 17.57C24.86 17.58 24.85 17.58 24.85 17.58C24.84 17.58 24.84 17.58 24.83 17.58C24.82 17.58 24.82 17.58 24.81 17.57C24.81 17.57 24.8 17.57 24.8 17.57C24.79 17.58 24.79 17.58 24.78 17.58C24.78 17.58 24.78 17.59 24.78 17.59C24.77 17.6 24.77 17.61 24.77 17.62C24.77 17.63 24.78 17.64 24.78 17.65C24.79 17.66 24.79 17.66 24.8 17.67C24.8 17.68 24.81 17.69 24.81 17.69C24.82 17.7 24.82 17.71 24.82 17.72C24.83 17.73 24.82 17.74 24.82 17.75C24.82 17.75 24.81 17.76 24.81 17.76C24.81 17.76 24.8 17.77 24.8 17.77C24.79 17.77 24.79 17.77 24.78 17.77C24.78 17.77 24.77 17.76 24.76 17.76C24.76 17.76 24.75 17.76 24.75 17.76C24.74 17.76 24.74 17.76 24.73 17.77C24.73 17.77 24.73 17.78 24.73 17.78C24.73 17.79 24.73 17.79 24.73 17.8C24.73 17.8 24.73 17.81 24.73 17.82C24.73 17.82 24.73 17.83 24.73 17.83C24.73 17.84 24.73 17.85 24.72 17.85C24.72 17.86 24.71 17.86 24.7 17.87C24.7 17.87 24.69 17.87 24.68 17.88C24.68 17.88 24.67 17.89 24.67 17.9C24.66 17.91 24.66 17.92 24.67 17.93C24.67 17.94 24.68 17.95 24.68 17.96C24.68 17.97 24.69 17.99 24.69 18C24.69 18 24.68 18.01 24.68 18.01C24.68 18.02 24.67 18.02 24.67 18.03C24.66 18.03 24.66 18.03 24.65 18.03C24.65 18.03 24.64 18.03 24.64 18.02C24.63 18.02 24.63 18.02 24.62 18.02C24.61 18.02 24.61 18.02 24.6 18.03C24.6 18.03 24.59 18.03 24.59 18.04C24.59 18.04 24.59 18.05 24.59 18.06C24.59 18.07 24.6 18.08 24.6 18.09C24.61 18.1 24.61 18.11 24.62 18.12C24.62 18.13 24.62 18.14 24.61 18.14C24.61 18.15 24.61 18.15 24.6 18.16C24.6 18.16 24.59 18.16 24.59 18.16C24.58 18.16 24.58 18.16 24.57 18.16C24.57 18.16 24.56 18.16 24.56 18.15C24.55 18.15 24.54 18.15 24.54 18.15C24.53 18.16 24.52 18.16 24.52 18.17C24.51 18.18 24.51 18.19 24.51 18.2C24.51 18.22 24.52 18.23 24.53 18.25C24.54 18.26 24.55 18.28 24.55 18.3C24.56 18.31 24.56 18.32 24.55 18.33C24.55 18.33 24.55 18.34 24.54 18.35C24.53 18.35 24.52 18.36 24.52 18.36C24.51 18.36 24.5 18.36 24.49 18.37C24.49 18.37 24.48 18.38 24.48 18.39C24.48 18.4 24.47 18.4 24.47 18.41L24.47 18.48C24.47 18.49 24.48 18.5 24.48 18.51C24.48 18.52 24.48 18.52 24.48 18.53C24.48 18.53 24.48 18.54 24.47 18.54C24.47 18.55 24.47 18.55 24.46 18.55C24.45 18.55 24.45 18.55 24.44 18.55C24.44 18.55 24.43 18.54 24.43 18.54C24.42 18.54 24.42 18.54 24.41 18.54C24.4 18.54 24.39 18.55 24.39 18.56C24.38 18.57 24.38 18.58 24.38 18.59C24.38 18.59 24.38 18.6 24.39 18.61C24.39 18.62 24.4 18.63 24.4 18.64C24.42 18.65 24.43 18.67 24.43 18.69C24.43 18.7 24.43 18.71 24.43 18.72C24.43 18.72 24.42 18.73 24.41 18.74C24.41 18.74 24.4 18.74 24.39 18.74C24.39 18.74 24.38 18.74 24.38 18.74C24.37 18.74 24.36 18.73 24.35 18.74C24.34 18.74 24.33 18.74 24.33 18.74C24.32 18.75 24.32 18.75 24.32 18.76C24.31 18.77 24.31 18.78 24.31 18.8C24.31 18.81 24.32 18.82 24.32 18.83C24.33 18.84 24.34 18.86 24.35 18.87C24.35 18.88 24.36 18.89 24.37 18.9C24.38 18.91 24.38 18.92 24.38 18.93C24.38 18.95 24.38 18.96 24.38 18.97C24.37 18.98 24.37 18.98 24.36 18.99C24.36 18.99 24.35 18.99 24.35 18.99C24.33 19 24.32 18.99 24.31 18.99C24.31 18.99 24.3 18.99 24.3 18.99C24.29 18.99 24.29 18.99 24.28 18.99C24.28 19 24.27 19 24.27 19.01C24.27 19.01 24.26 19.02 24.26 19.02C24.26 19.03 24.27 19.05 24.27 19.06C24.27 19.07 24.28 19.08 24.28 19.09C24.28 19.1 24.29 19.11 24.28 19.12C24.28 19.13 24.27 19.14 24.27 19.14C24.26 19.15 24.26 19.15 24.25 19.16C24.24 19.17 24.22 19.17 24.22 19.19C24.21 19.2 24.21 19.21 24.21 19.22C24.21 19.23 24.21 19.24 24.21 19.25C24.22 19.26 24.22 19.27 24.22 19.28C24.22 19.3 24.22 19.31 24.22 19.32C24.21 19.33 24.2 19.34 24.19 19.35C24.17 19.36 24.16 19.37 24.15 19.38C24.14 19.39 24.14 19.41 24.14 19.42C24.14 19.44 24.14 19.45 24.14 19.47C24.15 19.5 24.17 19.52 24.18 19.55C24.2 19.58 24.21 19.61 24.21 19.64C24.2 19.65 24.2 19.67 24.19 19.68C24.18 19.69 24.17 19.7 24.15 19.7C24.14 19.71 24.13 19.7 24.12 19.7C24.11 19.7 24.1 19.7 24.09 19.7C24.08 19.71 24.07 19.71 24.07 19.72C24.06 19.72 24.05 19.73 24.05 19.74C24.04 19.75 24.04 19.77 24.05 19.79C24.05 19.8 24.06 19.82 24.07 19.83C24.08 19.84 24.09 19.86 24.1 19.87C24.11 19.88 24.12 19.9 24.13 19.91C24.14 19.93 24.14 19.94 24.14 19.96C24.15 19.98 24.14 19.99 24.13 20.01C24.13 20.01 24.12 20.02 24.11 20.02C24.1 20.03 24.1 20.03 24.09 20.03C24.08 20.03 24.07 20.02 24.05 20.02C24.05 20.02 24.04 20.02 24.04 20.02C24.03 20.02 24.03 20.02 24.02 20.03C24.02 20.03 24.02 20.04 24.02 20.04C24.02 20.05 24.02 20.05 24.02 20.06C24.02 20.07 24.02 20.08 24.02 20.09L24.02 20.48C24.02 20.49 24.02 20.5 24.03 20.51C24.03 20.52 24.03 20.52 24.03 20.53C24.03 20.53 24.03 20.54 24.02 20.54C24.02 20.55 24.01 20.55 24.01 20.55C24 20.55 24 20.55 23.99 20.55C23.98 20.55 23.97 20.54 23.96 20.54C23.95 20.54 23.95 20.55 23.94 20.55C23.93 20.55 23.93 20.56 23.93 20.56C23.92 20.57 23.92 20.59 23.92 20.6C23.92 20.61 23.92 20.63 23.93 20.64C23.94 20.65 23.95 20.66 23.95 20.67C23.96 20.68 23.97 20.69 23.98 20.7C23.99 20.71 23.99 20.73 23.99 20.74C24 20.75 24 20.77 23.99 20.78C23.99 20.78 23.98 20.79 23.98 20.79C23.97 20.8 23.96 20.8 23.96 20.8C23.95 20.8 23.94 20.8 23.93 20.8C23.92 20.8 23.91 20.8 23.91 20.8C23.9 20.8 23.9 20.8 23.89 20.8C23.89 20.8 23.89 20.81 23.88 20.82C23.88 20.82 23.88 20.83 23.88 20.83C23.88 20.84 23.89 20.86 23.89 20.87C23.91 20.89 23.92 20.91 23.93 20.93C23.93 20.95 23.93 20.96 23.92 20.97C23.92 20.98 23.92 20.98 23.91 20.99C23.91 20.99 23.9 20.99 23.89 21C23.88 21 23.87 20.99 23.86 20.99C23.86 20.99 23.85 20.99 23.84 20.99C23.84 20.99 23.83 20.99 23.83 21C23.82 21 23.82 21 23.82 21.01C23.82 21.02 23.82 21.02 23.82 21.03C23.82 21.04 23.83 21.05 23.83 21.06C23.84 21.07 23.84 21.08 23.85 21.09C23.85 21.1 23.84 21.11 23.84 21.11C23.84 21.12 23.83 21.12 23.83 21.12C23.82 21.13 23.82 21.13 23.81 21.13C23.81 21.12 23.8 21.12 23.8 21.12C23.79 21.12 23.79 21.12 23.78 21.12C23.77 21.12 23.77 21.12 23.76 21.12C23.76 21.13 23.76 21.13 23.76 21.14C23.76 21.14 23.76 21.15 23.76 21.16C23.76 21.16 23.76 21.17 23.76 21.17C23.76 21.18 23.77 21.18 23.76 21.19C23.76 21.2 23.76 21.2 23.75 21.21C23.75 21.21 23.74 21.22 23.74 21.22C23.73 21.23 23.72 21.23 23.72 21.24C23.71 21.24 23.7 21.25 23.7 21.25C23.7 21.26 23.69 21.28 23.7 21.29C23.7 21.3 23.7 21.31 23.71 21.32C23.71 21.33 23.71 21.34 23.71 21.35C23.71 21.36 23.71 21.36 23.71 21.37C23.71 21.37 23.7 21.38 23.7 21.38C23.7 21.39 23.69 21.39 23.68 21.39C23.68 21.39 23.67 21.39 23.67 21.39C23.66 21.39 23.65 21.38 23.64 21.38C23.62 21.37 23.61 21.37 23.6 21.37C23.6 21.37 23.59 21.37 23.59 21.37C23.58 21.37 23.57 21.38 23.57 21.38C23.57 21.39 23.57 21.39 23.56 21.4C23.56 21.4 23.56 21.41 23.57 21.42C23.57 21.43 23.57 21.44 23.58 21.45C23.59 21.46 23.59 21.47 23.59 21.48C23.59 21.49 23.59 21.5 23.58 21.5C23.58 21.51 23.58 21.51 23.57 21.51C23.57 21.51 23.56 21.51 23.55 21.51C23.55 21.51 23.54 21.51 23.54 21.51C23.53 21.51 23.53 21.5 23.52 21.5C23.52 21.5 23.52 21.51 23.51 21.51C23.51 21.51 23.51 21.51 23.51 21.51C23.5 21.51 23.5 21.52 23.5 21.52C23.5 21.52 23.5 21.52 23.5 21.53C23.5 21.53 23.5 21.54 23.51 21.54C23.51 21.55 23.51 21.55 23.51 21.56C23.51 21.57 23.51 21.57 23.51 21.58C23.5 21.58 23.5 21.58 23.49 21.58C23.49 21.58 23.48 21.58 23.48 21.58C23.47 21.58 23.46 21.58 23.46 21.58C23.45 21.58 23.45 21.58 23.44 21.58C23.44 21.58 23.43 21.58 23.43 21.58C23.42 21.58 23.42 21.59 23.42 21.59C23.41 21.6 23.41 21.61 23.41 21.62C23.42 21.63 23.42 21.64 23.42 21.65C23.43 21.66 23.44 21.67 23.44 21.67C23.45 21.68 23.45 21.69 23.46 21.7C23.46 21.71 23.47 21.71 23.47 21.72C23.47 21.73 23.47 21.74 23.47 21.75C23.46 21.76 23.46 21.76 23.46 21.76C23.45 21.77 23.45 21.77 23.44 21.77C23.44 21.77 23.43 21.77 23.43 21.77C23.42 21.77 23.41 21.76 23.41 21.76C23.4 21.76 23.4 21.76 23.39 21.76C23.39 21.76 23.38 21.77 23.38 21.77C23.37 21.77 23.37 21.78 23.37 21.79C23.37 21.79 23.38 21.8 23.38 21.8C23.38 21.81 23.38 21.81 23.38 21.82C23.38 21.82 23.38 21.83 23.38 21.83C23.37 21.84 23.37 21.84 23.36 21.84C23.36 21.84 23.35 21.84 23.35 21.84C23.34 21.84 23.34 21.84 23.33 21.84C23.32 21.83 23.32 21.83 23.31 21.83C23.31 21.83 23.3 21.84 23.3 21.84C23.3 21.84 23.29 21.85 23.29 21.85C23.29 21.86 23.28 21.87 23.29 21.88C23.29 21.89 23.29 21.9 23.3 21.91C23.3 21.92 23.31 21.92 23.31 21.93C23.32 21.94 23.33 21.95 23.33 21.96C23.34 21.96 23.34 21.97 23.34 21.98C23.34 21.99 23.34 22 23.34 22.01C23.33 22.02 23.33 22.02 23.33 22.02C23.32 22.03 23.32 22.03 23.31 22.03C23.31 22.03 23.3 22.03 23.3 22.03C23.29 22.02 23.29 22.02 23.28 22.02C23.27 22.02 23.27 22.02 23.26 22.02C23.26 22.02 23.25 22.02 23.25 22.03C23.25 22.03 23.24 22.04 23.24 22.04C23.25 22.05 23.25 22.05 23.25 22.06C23.25 22.07 23.25 22.07 23.25 22.08C23.25 22.08 23.25 22.08 23.25 22.08C23.25 22.09 23.25 22.09 23.25 22.09C23.25 22.09 23.24 22.1 23.24 22.1C23.24 22.1 23.24 22.1 23.23 22.1C23.23 22.1 23.22 22.1 23.22 22.1C23.21 22.09 23.21 22.09 23.2 22.09C23.19 22.09 23.19 22.09 23.18 22.09C23.18 22.09 23.17 22.1 23.17 22.1C23.17 22.11 23.17 22.12 23.17 22.12C23.17 22.13 23.17 22.15 23.18 22.16C23.19 22.17 23.19 22.18 23.2 22.19C23.2 22.19 23.2 22.2 23.19 22.21C23.19 22.21 23.19 22.22 23.18 22.22C23.18 22.22 23.17 22.23 23.17 22.23C23.16 22.23 23.16 22.23 23.15 22.22C23.15 22.22 23.14 22.22 23.14 22.22C23.13 22.22 23.12 22.22 23.12 22.22C23.11 22.22 23.1 22.23 23.1 22.24C23.09 22.25 23.09 22.26 23.09 22.26C23.09 22.28 23.1 22.3 23.11 22.32C23.12 22.33 23.13 22.35 23.14 22.37C23.14 22.37 23.14 22.38 23.14 22.39C23.13 22.4 23.13 22.41 23.12 22.42C23.11 22.42 23.11 22.42 23.1 22.42C23.1 22.42 23.09 22.42 23.09 22.42C23.08 22.42 23.06 22.41 23.05 22.41C23.04 22.41 23.03 22.4 23.02 22.4C23.01 22.4 23.01 22.4 23 22.41C23 22.41 22.99 22.41 22.99 22.42C22.99 22.42 22.98 22.43 22.98 22.43C22.98 22.44 22.98 22.44 22.98 22.45C22.99 22.46 22.99 22.47 23 22.48C23 22.49 23.01 22.5 23.01 22.51C23.01 22.52 23 22.53 23 22.53C23 22.54 23 22.54 22.99 22.54C22.99 22.55 22.98 22.55 22.97 22.55C22.97 22.55 22.96 22.55 22.96 22.55C22.95 22.55 22.95 22.54 22.94 22.54C22.94 22.54 22.93 22.54 22.93 22.54C22.92 22.55 22.91 22.55 22.91 22.55C22.9 22.56 22.9 22.56 22.9 22.57C22.89 22.58 22.89 22.59 22.89 22.61C22.89 22.62 22.89 22.63 22.88 22.64C22.88 22.65 22.88 22.66 22.88 22.66C22.87 22.67 22.87 22.67 22.86 22.67C22.86 22.68 22.85 22.68 22.84 22.68C22.84 22.68 22.83 22.68 22.83 22.67C22.81 22.67 22.8 22.66 22.79 22.66C22.78 22.65 22.77 22.65 22.76 22.65C22.75 22.65 22.75 22.66 22.74 22.66C22.74 22.66 22.73 22.67 22.73 22.67C22.73 22.68 22.73 22.68 22.73 22.69C22.73 22.7 22.74 22.7 22.74 22.71C22.74 22.71 22.74 22.72 22.74 22.72C22.74 22.73 22.74 22.73 22.74 22.73C22.74 22.73 22.73 22.74 22.73 22.74C22.73 22.74 22.73 22.74 22.72 22.74C22.72 22.74 22.72 22.74 22.72 22.74C22.71 22.74 22.7 22.74 22.7 22.74C22.69 22.73 22.69 22.73 22.68 22.73C22.68 22.73 22.68 22.73 22.67 22.73C22.67 22.73 22.67 22.74 22.67 22.74C22.67 22.74 22.66 22.74 22.66 22.75C22.66 22.75 22.66 22.75 22.66 22.75C22.66 22.76 22.67 22.76 22.67 22.77C22.67 22.78 22.67 22.78 22.67 22.79C22.67 22.79 22.67 22.79 22.67 22.8C22.67 22.8 22.67 22.8 22.67 22.8C22.67 22.8 22.66 22.81 22.66 22.81C22.66 22.81 22.65 22.81 22.65 22.81C22.65 22.81 22.64 22.8 22.64 22.8C22.63 22.8 22.62 22.8 22.62 22.8C22.62 22.8 22.61 22.8 22.61 22.8C22.61 22.8 22.6 22.8 22.6 22.8C22.6 22.8 22.6 22.81 22.6 22.81C22.6 22.81 22.6 22.82 22.6 22.82C22.6 22.82 22.6 22.83 22.6 22.83C22.6 22.84 22.61 22.85 22.61 22.85C22.61 22.85 22.61 22.86 22.61 22.86C22.61 22.86 22.6 22.86 22.6 22.87C22.6 22.87 22.6 22.87 22.6 22.87C22.59 22.87 22.59 22.87 22.59 22.87C22.58 22.87 22.58 22.87 22.57 22.87C22.57 22.87 22.56 22.87 22.55 22.87C22.55 22.87 22.54 22.87 22.54 22.87C22.53 22.87 22.53 22.87 22.53 22.88C22.52 22.89 22.52 22.89 22.52 22.9C22.52 22.91 22.53 22.92 22.54 22.93C22.54 22.94 22.55 22.95 22.55 22.96C22.55 22.97 22.55 22.98 22.55 22.98C22.55 22.99 22.54 22.99 22.54 23C22.53 23 22.53 23 22.52 23C22.52 23 22.51 22.99 22.51 22.99C22.5 22.99 22.49 22.99 22.49 22.99C22.48 22.99 22.48 22.99 22.47 23C22.47 23 22.47 23.01 22.47 23.01C22.47 23.02 22.47 23.02 22.47 23.03C22.47 23.03 22.47 23.04 22.47 23.04C22.48 23.05 22.48 23.06 22.47 23.06C22.47 23.07 22.47 23.07 22.46 23.07C22.46 23.08 22.45 23.08 22.44 23.08C22.43 23.08 22.42 23.07 22.41 23.06C22.4 23.06 22.39 23.05 22.38 23.05C22.37 23.05 22.36 23.05 22.36 23.05C22.35 23.05 22.35 23.06 22.34 23.06C22.34 23.07 22.34 23.07 22.34 23.08C22.34 23.08 22.34 23.09 22.34 23.09C22.35 23.1 22.35 23.1 22.35 23.11C22.35 23.11 22.35 23.12 22.34 23.13C22.34 23.13 22.34 23.14 22.33 23.14C22.33 23.14 22.32 23.14 22.32 23.14C22.3 23.14 22.29 23.14 22.28 23.13C22.27 23.13 22.26 23.12 22.25 23.12C22.24 23.12 22.24 23.12 22.23 23.12C22.23 23.12 22.22 23.12 22.22 23.13C22.21 23.13 22.21 23.13 22.21 23.14C22.2 23.14 22.2 23.15 22.2 23.16C22.2 23.17 22.21 23.18 22.21 23.19C22.21 23.2 22.22 23.21 22.22 23.22C22.22 23.23 22.22 23.23 22.22 23.24C22.22 23.24 22.22 23.25 22.22 23.25C22.21 23.26 22.2 23.27 22.19 23.27C22.18 23.27 22.17 23.27 22.16 23.27C22.15 23.27 22.13 23.25 22.11 23.24C22.11 23.24 22.1 23.23 22.09 23.23C22.08 23.23 22.07 23.22 22.06 23.22C22.05 23.22 22.04 23.23 22.04 23.23C22.03 23.24 22.02 23.25 22.02 23.25C22.02 23.26 22.02 23.27 22.02 23.27C22.03 23.28 22.03 23.28 22.03 23.29C22.03 23.29 22.03 23.3 22.03 23.3C22.03 23.31 22.03 23.31 22.03 23.31C22.03 23.32 22.02 23.32 22.02 23.32C22.02 23.32 22.02 23.32 22.01 23.32C22.01 23.32 22.01 23.32 22.01 23.32C22 23.32 21.99 23.32 21.99 23.32C21.98 23.32 21.98 23.31 21.97 23.31C21.97 23.31 21.97 23.31 21.96 23.31C21.96 23.32 21.96 23.32 21.96 23.32C21.96 23.32 21.95 23.32 21.95 23.33C21.95 23.33 21.95 23.33 21.95 23.33C21.95 23.34 21.96 23.35 21.96 23.35C21.96 23.36 21.96 23.36 21.96 23.37C21.96 23.37 21.96 23.37 21.96 23.38C21.96 23.38 21.96 23.38 21.96 23.38C21.96 23.39 21.95 23.39 21.95 23.39C21.95 23.39 21.94 23.39 21.94 23.39C21.94 23.39 21.93 23.39 21.92 23.38C21.92 23.38 21.91 23.38 21.91 23.38C21.91 23.38 21.9 23.38 21.9 23.38C21.9 23.38 21.89 23.38 21.89 23.38C21.89 23.39 21.89 23.39 21.89 23.39C21.89 23.39 21.89 23.4 21.89 23.4C21.89 23.41 21.89 23.41 21.89 23.42C21.89 23.42 21.9 23.43 21.9 23.43C21.9 23.43 21.9 23.44 21.9 23.44C21.9 23.44 21.89 23.45 21.89 23.45C21.89 23.45 21.89 23.45 21.89 23.45C21.88 23.45 21.88 23.45 21.88 23.45C21.87 23.45 21.87 23.45 21.86 23.45C21.86 23.45 21.85 23.44 21.84 23.44C21.84 23.44 21.84 23.44 21.84 23.44C21.83 23.44 21.83 23.45 21.83 23.45C21.83 23.45 21.82 23.45 21.82 23.46C21.82 23.46 21.82 23.46 21.82 23.46C21.82 23.47 21.83 23.47 21.83 23.48C21.83 23.49 21.83 23.49 21.83 23.5C21.83 23.5 21.83 23.5 21.83 23.51C21.83 23.51 21.83 23.51 21.83 23.51C21.83 23.51 21.82 23.52 21.82 23.52C21.82 23.52 21.82 23.52 21.81 23.52C21.81 23.52 21.8 23.52 21.8 23.51C21.79 23.51 21.79 23.51 21.78 23.51C21.78 23.51 21.77 23.51 21.77 23.51C21.77 23.51 21.77 23.51 21.76 23.51C21.76 23.51 21.76 23.52 21.76 23.52C21.76 23.52 21.76 23.52 21.76 23.53C21.76 23.53 21.76 23.54 21.76 23.54C21.76 23.55 21.76 23.55 21.76 23.56C21.76 23.57 21.77 23.57 21.76 23.58C21.76 23.58 21.76 23.59 21.75 23.59C21.75 23.6 21.74 23.6 21.74 23.6C21.73 23.6 21.71 23.6 21.7 23.59C21.69 23.59 21.68 23.58 21.67 23.58C21.66 23.58 21.66 23.57 21.65 23.57C21.65 23.57 21.64 23.57 21.63 23.58C21.63 23.58 21.62 23.59 21.62 23.59C21.61 23.6 21.61 23.6 21.6 23.61C21.6 23.62 21.6 23.62 21.59 23.63C21.58 23.64 21.58 23.64 21.57 23.64C21.56 23.64 21.56 23.64 21.55 23.64C21.55 23.64 21.54 23.64 21.54 23.64C21.53 23.63 21.53 23.63 21.52 23.63C21.51 23.64 21.51 23.64 21.51 23.64C21.5 23.65 21.5 23.65 21.5 23.66C21.5 23.66 21.5 23.67 21.5 23.67C21.5 23.68 21.51 23.68 21.51 23.69C21.51 23.7 21.51 23.7 21.51 23.71C21.5 23.71 21.5 23.72 21.49 23.72C21.49 23.72 21.48 23.72 21.48 23.72C21.46 23.72 21.45 23.72 21.44 23.71C21.43 23.71 21.42 23.7 21.41 23.7C21.4 23.7 21.4 23.7 21.39 23.7C21.39 23.7 21.38 23.7 21.38 23.71C21.37 23.71 21.37 23.72 21.37 23.72C21.37 23.73 21.37 23.73 21.37 23.74C21.37 23.75 21.37 23.76 21.38 23.77C21.38 23.78 21.39 23.79 21.39 23.8C21.39 23.81 21.39 23.81 21.39 23.82C21.38 23.83 21.38 23.83 21.38 23.84C21.37 23.84 21.37 23.84 21.36 23.84C21.36 23.84 21.35 23.84 21.34 23.84C21.33 23.84 21.32 23.84 21.31 23.83C21.3 23.83 21.29 23.82 21.28 23.82C21.27 23.82 21.27 23.82 21.26 23.82C21.25 23.83 21.25 23.83 21.25 23.84C21.24 23.84 21.24 23.85 21.24 23.85C21.24 23.86 21.24 23.86 21.25 23.87C21.25 23.87 21.25 23.88 21.25 23.88C21.25 23.89 21.25 23.89 21.25 23.9C21.24 23.91 21.24 23.92 21.23 23.92C21.22 23.92 21.21 23.93 21.2 23.92C21.18 23.92 21.17 23.91 21.15 23.9C21.13 23.89 21.12 23.88 21.1 23.87C21.09 23.87 21.08 23.87 21.07 23.88C21.06 23.88 21.06 23.89 21.05 23.9C21.05 23.91 21.05 23.91 21.05 23.92C21.05 23.92 21.06 23.93 21.06 23.93C21.06 23.94 21.06 23.94 21.06 23.95C21.06 23.95 21.06 23.96 21.05 23.96C21.05 23.97 21.05 23.97 21.04 23.97C21.03 23.98 21.03 23.98 21.02 23.98C21.01 23.97 21 23.97 20.99 23.96C20.98 23.96 20.97 23.95 20.95 23.95C20.95 23.95 20.94 23.95 20.94 23.95C20.93 23.95 20.93 23.96 20.92 23.96C20.92 23.97 20.92 23.98 20.92 23.98C20.92 23.99 20.93 23.99 20.93 24C20.93 24 20.93 24.01 20.93 24.01C20.93 24.02 20.93 24.02 20.92 24.03C20.92 24.03 20.92 24.04 20.91 24.04C20.9 24.04 20.9 24.04 20.89 24.03C20.89 24.03 20.88 24.03 20.88 24.03C20.87 24.03 20.87 24.03 20.86 24.03C20.85 24.03 20.85 24.03 20.84 24.04C20.84 24.04 20.83 24.05 20.83 24.05C20.83 24.06 20.82 24.08 20.82 24.09C20.82 24.1 20.82 24.12 20.82 24.13C20.82 24.13 20.81 24.14 20.81 24.15C20.81 24.15 20.8 24.16 20.8 24.16C20.79 24.16 20.78 24.16 20.78 24.16C20.77 24.16 20.77 24.16 20.76 24.16C20.75 24.15 20.74 24.15 20.73 24.14C20.72 24.14 20.7 24.14 20.69 24.14C20.69 24.14 20.68 24.14 20.68 24.14C20.67 24.15 20.67 24.15 20.67 24.16C20.66 24.16 20.67 24.17 20.67 24.17C20.67 24.18 20.67 24.19 20.67 24.19C20.67 24.2 20.67 24.2 20.67 24.21C20.67 24.21 20.67 24.21 20.67 24.22C20.67 24.22 20.67 24.22 20.67 24.22C20.66 24.22 20.66 24.23 20.66 24.23C20.66 24.23 20.65 24.23 20.65 24.23C20.64 24.23 20.64 24.22 20.63 24.22C20.63 24.22 20.62 24.22 20.62 24.22C20.61 24.22 20.61 24.22 20.61 24.22C20.61 24.22 20.6 24.22 20.6 24.22C20.6 24.22 20.6 24.23 20.6 24.23C20.6 24.23 20.6 24.23 20.6 24.24C20.59 24.24 20.6 24.25 20.6 24.25C20.6 24.26 20.6 24.26 20.6 24.27C20.6 24.28 20.6 24.28 20.6 24.29C20.6 24.29 20.59 24.3 20.59 24.3C20.58 24.3 20.58 24.3 20.57 24.3C20.56 24.3 20.55 24.29 20.54 24.29C20.53 24.28 20.52 24.27 20.5 24.27C20.5 24.27 20.49 24.27 20.49 24.27C20.48 24.28 20.48 24.28 20.47 24.29C20.47 24.29 20.47 24.3 20.47 24.3C20.47 24.31 20.47 24.31 20.47 24.32C20.48 24.32 20.48 24.33 20.48 24.34C20.48 24.34 20.48 24.35 20.47 24.35C20.47 24.36 20.46 24.36 20.46 24.36C20.45 24.36 20.45 24.36 20.44 24.36C20.43 24.36 20.42 24.35 20.41 24.35C20.4 24.35 20.38 24.35 20.37 24.36C20.36 24.37 20.35 24.38 20.34 24.38C20.33 24.39 20.33 24.4 20.31 24.41C20.3 24.41 20.29 24.42 20.28 24.42C20.27 24.41 20.26 24.41 20.25 24.41C20.24 24.41 20.23 24.4 20.23 24.41C20.22 24.41 20.22 24.41 20.21 24.42C20.21 24.42 20.21 24.43 20.21 24.43C20.21 24.44 20.22 24.44 20.22 24.45C20.22 24.45 20.22 24.46 20.22 24.47C20.22 24.47 20.22 24.47 20.22 24.47C20.22 24.48 20.22 24.48 20.21 24.48C20.21 24.48 20.21 24.48 20.21 24.48C20.2 24.49 20.2 24.49 20.2 24.49C20.19 24.48 20.19 24.48 20.18 24.48C20.18 24.48 20.17 24.48 20.17 24.48C20.16 24.48 20.16 24.48 20.16 24.48C20.15 24.48 20.15 24.48 20.15 24.48C20.15 24.48 20.15 24.49 20.15 24.49C20.14 24.49 20.14 24.49 20.14 24.5C20.14 24.5 20.15 24.51 20.15 24.51C20.15 24.52 20.15 24.52 20.15 24.53C20.15 24.53 20.15 24.53 20.15 24.54C20.15 24.54 20.15 24.54 20.15 24.55C20.15 24.55 20.15 24.55 20.14 24.55C20.14 24.55 20.14 24.55 20.14 24.55C20.13 24.55 20.12 24.55 20.12 24.55C20.11 24.55 20.11 24.55 20.1 24.55C20.1 24.55 20.09 24.54 20.09 24.55C20.08 24.55 20.07 24.55 20.07 24.56C20.06 24.56 20.06 24.57 20.05 24.58C20.05 24.58 20.04 24.59 20.04 24.6C20.03 24.6 20.03 24.61 20.02 24.61C20.02 24.61 20.01 24.61 20 24.61C20 24.61 19.99 24.61 19.99 24.61C19.98 24.61 19.97 24.61 19.96 24.61C19.95 24.61 19.94 24.62 19.94 24.62C19.93 24.63 19.93 24.63 19.92 24.64C19.92 24.65 19.92 24.65 19.91 24.66C19.91 24.67 19.9 24.67 19.89 24.67C19.88 24.68 19.87 24.68 19.86 24.67C19.85 24.67 19.84 24.67 19.82 24.66C19.81 24.66 19.8 24.65 19.79 24.66C19.78 24.66 19.78 24.66 19.77 24.66C19.77 24.66 19.76 24.67 19.76 24.67C19.76 24.68 19.76 24.68 19.76 24.69C19.76 24.7 19.76 24.7 19.76 24.71C19.77 24.71 19.77 24.72 19.77 24.72C19.77 24.73 19.77 24.73 19.76 24.74C19.76 24.74 19.75 24.75 19.75 24.75C19.74 24.75 19.74 24.75 19.73 24.75C19.72 24.75 19.71 24.74 19.7 24.74C19.69 24.73 19.68 24.73 19.66 24.72C19.66 24.72 19.65 24.72 19.65 24.73C19.64 24.73 19.64 24.73 19.63 24.74C19.63 24.74 19.63 24.75 19.63 24.75C19.63 24.76 19.63 24.77 19.63 24.77C19.63 24.78 19.64 24.78 19.64 24.79C19.64 24.79 19.64 24.8 19.63 24.8C19.63 24.81 19.63 24.81 19.62 24.81C19.61 24.82 19.61 24.82 19.6 24.82C19.59 24.82 19.58 24.81 19.57 24.8C19.56 24.8 19.55 24.79 19.54 24.79C19.53 24.79 19.52 24.79 19.52 24.79C19.51 24.79 19.51 24.8 19.5 24.8C19.5 24.81 19.5 24.81 19.5 24.82C19.5 24.82 19.5 24.83 19.5 24.84C19.51 24.84 19.51 24.85 19.51 24.85C19.51 24.86 19.51 24.86 19.5 24.87C19.5 24.87 19.5 24.88 19.49 24.88C19.49 24.88 19.48 24.88 19.47 24.88C19.46 24.88 19.45 24.87 19.44 24.87C19.43 24.86 19.42 24.86 19.41 24.85C19.4 24.85 19.39 24.85 19.39 24.86C19.38 24.86 19.38 24.86 19.38 24.87C19.37 24.87 19.37 24.88 19.37 24.88C19.37 24.89 19.37 24.89 19.37 24.9C19.38 24.91 19.38 24.91 19.38 24.92C19.38 24.92 19.38 24.93 19.38 24.93C19.37 24.94 19.37 24.94 19.36 24.94C19.36 24.95 19.35 24.95 19.35 24.95C19.33 24.95 19.32 24.94 19.31 24.94C19.3 24.93 19.29 24.93 19.28 24.93C19.27 24.92 19.27 24.92 19.26 24.92C19.26 24.93 19.25 24.93 19.25 24.93C19.24 24.94 19.24 24.94 19.24 24.95C19.24 24.95 19.24 24.96 19.24 24.96C19.24 24.98 19.24 24.99 19.25 25C19.25 25.01 19.26 25.02 19.26 25.03C19.26 25.04 19.26 25.04 19.26 25.05C19.25 25.05 19.25 25.06 19.25 25.06C19.24 25.07 19.24 25.07 19.23 25.07C19.22 25.07 19.22 25.07 19.21 25.07C19.2 25.07 19.19 25.06 19.18 25.06C19.17 25.05 19.16 25.05 19.15 25.05C19.14 25.05 19.13 25.05 19.13 25.05C19.12 25.05 19.12 25.06 19.12 25.06C19.11 25.07 19.11 25.07 19.11 25.08C19.12 25.08 19.12 25.09 19.12 25.09C19.12 25.1 19.12 25.1 19.12 25.11C19.12 25.12 19.12 25.12 19.12 25.13C19.11 25.13 19.11 25.14 19.1 25.14C19.1 25.14 19.09 25.14 19.09 25.14C19.07 25.14 19.06 25.13 19.05 25.13C19.04 25.12 19.03 25.12 19.02 25.11C19.01 25.11 19.01 25.11 19 25.12C19 25.12 18.99 25.12 18.99 25.13C18.99 25.13 18.98 25.14 18.98 25.14C18.98 25.15 18.98 25.15 18.99 25.16C18.99 25.16 18.99 25.17 18.99 25.17C18.99 25.18 18.99 25.19 18.99 25.19C18.99 25.2 18.98 25.21 18.97 25.21C18.96 25.22 18.95 25.22 18.94 25.21C18.92 25.21 18.91 25.2 18.89 25.19C18.88 25.18 18.87 25.18 18.87 25.17C18.86 25.17 18.85 25.16 18.84 25.16C18.83 25.16 18.82 25.16 18.81 25.17C18.81 25.17 18.8 25.17 18.8 25.18C18.8 25.18 18.8 25.19 18.79 25.19C18.79 25.2 18.79 25.2 18.8 25.21C18.8 25.21 18.8 25.22 18.8 25.22C18.8 25.23 18.8 25.24 18.8 25.24C18.8 25.24 18.8 25.25 18.8 25.25C18.8 25.25 18.8 25.25 18.79 25.26C18.79 25.26 18.79 25.26 18.79 25.26C18.78 25.26 18.78 25.26 18.78 25.26C18.77 25.26 18.77 25.26 18.76 25.25C18.76 25.25 18.75 25.25 18.75 25.25C18.74 25.25 18.74 25.25 18.74 25.25C18.73 25.25 18.73 25.25 18.73 25.26C18.73 25.26 18.73 25.26 18.73 25.26C18.73 25.27 18.73 25.27 18.73 25.27C18.73 25.28 18.73 25.28 18.73 25.29C18.73 25.29 18.73 25.3 18.73 25.3C18.74 25.31 18.73 25.31 18.73 25.31C18.73 25.32 18.73 25.32 18.73 25.32C18.73 25.32 18.73 25.32 18.72 25.32C18.72 25.32 18.72 25.32 18.71 25.32C18.71 25.32 18.7 25.32 18.7 25.32C18.69 25.32 18.69 25.32 18.68 25.31C18.68 25.31 18.68 25.31 18.67 25.32C18.67 25.32 18.67 25.32 18.67 25.32C18.66 25.32 18.66 25.32 18.66 25.33C18.66 25.33 18.66 25.33 18.66 25.34C18.66 25.34 18.66 25.35 18.66 25.35C18.67 25.36 18.67 25.36 18.67 25.37C18.67 25.37 18.67 25.37 18.67 25.38C18.67 25.38 18.67 25.38 18.67 25.38C18.66 25.39 18.66 25.39 18.66 25.39C18.66 25.39 18.65 25.39 18.65 25.39C18.64 25.39 18.64 25.39 18.63 25.39C18.62 25.39 18.61 25.38 18.6 25.38L18.54 25.38C18.53 25.38 18.52 25.38 18.51 25.39C18.5 25.39 18.5 25.4 18.49 25.4C18.49 25.41 18.48 25.42 18.48 25.43C18.48 25.43 18.48 25.44 18.47 25.45C18.47 25.46 18.45 25.47 18.44 25.47C18.43 25.47 18.42 25.47 18.41 25.47C18.38 25.47 18.36 25.45 18.34 25.44C18.32 25.42 18.29 25.41 18.27 25.41C18.26 25.41 18.24 25.41 18.23 25.42C18.22 25.43 18.22 25.44 18.21 25.45C18.21 25.46 18.21 25.47 18.22 25.48C18.22 25.49 18.22 25.49 18.22 25.5C18.22 25.5 18.22 25.51 18.21 25.51C18.21 25.52 18.21 25.52 18.2 25.53C18.2 25.53 18.19 25.53 18.19 25.53C18.17 25.53 18.16 25.53 18.15 25.53C18.14 25.52 18.13 25.52 18.12 25.51C18.11 25.51 18.1 25.51 18.08 25.51C18.08 25.52 18.07 25.52 18.06 25.53C18.06 25.53 18.05 25.54 18.05 25.54C18.04 25.56 18.03 25.57 18.02 25.58C18.01 25.59 17.99 25.59 17.97 25.59C17.96 25.59 17.94 25.58 17.92 25.58C17.91 25.58 17.89 25.57 17.87 25.57C17.86 25.57 17.84 25.57 17.83 25.58C17.81 25.59 17.8 25.6 17.79 25.61C17.78 25.62 17.77 25.63 17.76 25.64C17.75 25.65 17.74 25.65 17.73 25.65C17.72 25.65 17.7 25.65 17.69 25.65C17.67 25.64 17.65 25.63 17.63 25.62C17.6 25.61 17.58 25.6 17.56 25.6C17.55 25.6 17.53 25.61 17.52 25.61C17.51 25.62 17.51 25.63 17.5 25.64C17.5 25.65 17.5 25.66 17.5 25.67C17.5 25.69 17.51 25.7 17.5 25.71C17.5 25.71 17.5 25.72 17.49 25.73C17.49 25.73 17.48 25.74 17.47 25.74C17.46 25.75 17.44 25.75 17.43 25.75C17.41 25.75 17.39 25.74 17.38 25.73C17.37 25.72 17.35 25.71 17.34 25.7C17.33 25.69 17.31 25.68 17.3 25.68C17.29 25.67 17.27 25.66 17.25 25.66C17.24 25.66 17.22 25.66 17.21 25.67C17.2 25.67 17.19 25.68 17.19 25.68C17.18 25.69 17.18 25.7 17.18 25.71C17.18 25.72 17.18 25.73 17.18 25.74C17.18 25.74 17.18 25.75 17.18 25.76C17.18 25.76 17.18 25.77 17.18 25.77C17.18 25.78 17.17 25.79 17.16 25.79C17.15 25.79 17.14 25.79 17.13 25.79C17.11 25.79 17.1 25.78 17.08 25.77C17.07 25.76 17.05 25.75 17.03 25.75C17.02 25.74 17.01 25.75 17 25.75C17 25.75 16.99 25.76 16.99 25.77C16.99 25.78 16.99 25.78 16.99 25.79C16.99 25.79 16.99 25.8 16.99 25.8C16.99 25.81 16.99 25.81 16.99 25.82C16.99 25.83 16.99 25.83 16.99 25.84C16.98 25.84 16.98 25.84 16.97 25.85C16.97 25.85 16.96 25.85 16.96 25.85C16.94 25.85 16.93 25.84 16.92 25.84C16.91 25.83 16.9 25.83 16.89 25.83C16.88 25.82 16.88 25.82 16.87 25.83C16.87 25.83 16.86 25.83 16.86 25.84C16.85 25.84 16.85 25.85 16.85 25.85C16.85 25.86 16.85 25.86 16.85 25.87C16.85 25.88 16.86 25.89 16.86 25.9C16.86 25.92 16.85 25.93 16.84 25.94C16.83 25.95 16.81 25.96 16.8 25.96C16.78 25.97 16.77 25.96 16.75 25.96C16.74 25.96 16.72 25.95 16.71 25.94C16.68 25.93 16.66 25.91 16.63 25.9C16.61 25.89 16.6 25.89 16.58 25.89C16.56 25.89 16.55 25.89 16.54 25.9C16.52 25.91 16.51 25.92 16.5 25.93C16.49 25.94 16.48 25.96 16.47 25.97C16.45 25.98 16.42 25.99 16.39 25.99C16.37 25.99 16.34 25.99 16.31 25.98C16.26 25.97 16.2 25.97 16.15 25.97L15.31 25.97C15.29 25.97 15.27 25.97 15.26 25.97C15.24 25.97 15.22 25.98 15.21 25.99C15.19 25.99 15.17 26 15.15 26C15.15 25.99 15.14 25.99 15.13 25.99C15.12 25.98 15.12 25.97 15.12 25.97C15.11 25.96 15.12 25.95 15.12 25.95C15.12 25.94 15.12 25.94 15.12 25.93C15.12 25.93 15.12 25.92 15.12 25.92C15.12 25.91 15.12 25.9 15.12 25.9C15.11 25.9 15.11 25.9 15.1 25.9C15.09 25.9 15.09 25.9 15.08 25.9C15.07 25.9 15.06 25.9 15.05 25.9L14.6 25.9C14.57 25.9 14.54 25.9 14.51 25.91C14.48 25.91 14.45 25.93 14.42 25.94C14.4 25.95 14.37 25.96 14.34 25.95C14.32 25.95 14.31 25.95 14.3 25.94C14.29 25.93 14.28 25.92 14.28 25.9C14.28 25.89 14.28 25.88 14.28 25.87C14.28 25.86 14.28 25.86 14.28 25.85C14.28 25.85 14.28 25.84 14.28 25.84C14.27 25.83 14.27 25.83 14.26 25.83C14.26 25.82 14.25 25.82 14.24 25.82C14.23 25.83 14.22 25.83 14.21 25.84C14.16 25.86 14.11 25.88 14.05 25.89C14.02 25.89 13.99 25.89 13.96 25.88C13.93 25.87 13.91 25.86 13.89 25.84C13.88 25.83 13.87 25.81 13.86 25.8C13.85 25.79 13.84 25.78 13.82 25.77C13.81 25.76 13.79 25.76 13.78 25.76C13.76 25.76 13.75 25.77 13.73 25.77C13.7 25.78 13.68 25.8 13.65 25.82C13.64 25.82 13.62 25.83 13.61 25.83C13.59 25.84 13.58 25.84 13.56 25.83C13.55 25.83 13.53 25.82 13.52 25.81C13.51 25.8 13.5 25.79 13.5 25.77C13.5 25.76 13.51 25.75 13.51 25.74C13.51 25.73 13.51 25.73 13.51 25.72C13.51 25.72 13.5 25.71 13.5 25.71C13.5 25.7 13.49 25.7 13.49 25.7C13.48 25.7 13.48 25.7 13.47 25.7C13.46 25.7 13.45 25.7 13.44 25.71C13.43 25.71 13.42 25.72 13.4 25.72C13.4 25.72 13.39 25.72 13.39 25.72C13.38 25.72 13.38 25.71 13.37 25.71C13.37 25.7 13.37 25.7 13.37 25.69C13.37 25.69 13.37 25.68 13.37 25.67C13.37 25.66 13.37 25.65 13.37 25.64C13.37 25.63 13.37 25.62 13.36 25.62C13.35 25.61 13.35 25.61 13.34 25.6C13.32 25.6 13.3 25.6 13.28 25.61C13.27 25.61 13.25 25.62 13.23 25.63C13.22 25.64 13.2 25.64 13.18 25.64C13.15 25.64 13.13 25.63 13.11 25.61C13.09 25.6 13.07 25.58 13.05 25.58C13.02 25.57 12.99 25.58 12.96 25.59C12.93 25.6 12.9 25.62 12.88 25.63C12.85 25.64 12.82 25.65 12.79 25.64C12.77 25.64 12.76 25.63 12.75 25.62C12.73 25.61 12.73 25.59 12.73 25.58C12.73 25.57 12.73 25.56 12.73 25.55C12.73 25.54 12.73 25.53 12.73 25.53C12.73 25.52 12.73 25.52 12.73 25.51C12.72 25.5 12.71 25.5 12.71 25.5C12.7 25.49 12.69 25.49 12.68 25.49C12.66 25.5 12.64 25.51 12.63 25.52C12.61 25.53 12.6 25.54 12.58 25.54C12.57 25.54 12.56 25.54 12.55 25.53C12.54 25.53 12.54 25.52 12.53 25.51C12.53 25.51 12.53 25.5 12.53 25.5C12.53 25.49 12.53 25.49 12.53 25.48C12.54 25.48 12.54 25.47 12.54 25.46C12.54 25.46 12.54 25.45 12.53 25.45C12.53 25.44 12.53 25.44 12.52 25.44C12.52 25.43 12.51 25.43 12.51 25.43C12.49 25.43 12.48 25.43 12.47 25.43C12.46 25.44 12.45 25.44 12.44 25.45C12.43 25.45 12.42 25.45 12.4 25.45C12.4 25.45 12.39 25.44 12.38 25.44C12.38 25.43 12.37 25.43 12.37 25.42C12.36 25.41 12.35 25.39 12.34 25.38C12.33 25.37 12.31 25.37 12.3 25.37C12.28 25.37 12.27 25.37 12.25 25.37C12.22 25.38 12.2 25.4 12.17 25.42C12.14 25.43 12.11 25.44 12.08 25.44C12.07 25.44 12.05 25.43 12.04 25.42C12.03 25.41 12.02 25.4 12.02 25.38C12.02 25.37 12.02 25.36 12.02 25.35C12.02 25.34 12.02 25.33 12.02 25.32C12.01 25.31 12.01 25.3 12 25.3C11.99 25.3 11.98 25.3 11.97 25.3C11.95 25.3 11.94 25.31 11.92 25.32C11.9 25.33 11.89 25.34 11.87 25.34C11.86 25.34 11.85 25.34 11.84 25.34C11.83 25.33 11.83 25.33 11.82 25.32C11.82 25.31 11.82 25.31 11.82 25.3C11.82 25.3 11.82 25.29 11.82 25.29C11.82 25.28 11.83 25.27 11.82 25.26C11.82 25.25 11.82 25.24 11.81 25.23C11.8 25.23 11.79 25.23 11.78 25.22C11.77 25.22 11.75 25.23 11.73 25.23C11.71 25.24 11.7 25.25 11.68 25.26C11.67 25.26 11.66 25.26 11.66 25.26C11.65 25.26 11.64 25.26 11.63 25.26C11.62 25.25 11.61 25.24 11.6 25.22C11.59 25.21 11.58 25.2 11.56 25.19C11.55 25.18 11.53 25.18 11.52 25.18C11.5 25.18 11.48 25.19 11.47 25.19C11.45 25.2 11.44 25.2 11.42 25.2C11.4 25.21 11.38 25.2 11.37 25.19C11.36 25.18 11.36 25.17 11.35 25.16C11.35 25.15 11.34 25.14 11.34 25.12C11.34 25.11 11.34 25.1 11.33 25.09C11.33 25.08 11.32 25.07 11.31 25.06C11.3 25.06 11.29 25.05 11.27 25.06C11.26 25.06 11.25 25.06 11.24 25.06C11.23 25.06 11.22 25.07 11.21 25.07C11.2 25.07 11.19 25.07 11.18 25.06C11.17 25.06 11.17 25.05 11.16 25.05C11.16 25.04 11.15 25.03 11.15 25.03C11.14 25.02 11.14 25.01 11.13 25.01C11.13 25 11.12 25 11.11 25C11.1 24.99 11.09 25 11.08 25C11.07 25 11.06 25 11.05 25C11.04 24.99 11.03 24.99 11.03 24.98C11.02 24.98 11.02 24.97 11.02 24.96C11.01 24.96 11.01 24.95 11 24.95C11 24.94 10.99 24.93 10.98 24.93C10.97 24.93 10.96 24.93 10.95 24.93C10.94 24.93 10.93 24.93 10.92 24.93C10.91 24.93 10.91 24.93 10.9 24.92C10.89 24.92 10.89 24.91 10.88 24.9C10.88 24.89 10.87 24.88 10.85 24.87C10.85 24.86 10.83 24.86 10.82 24.86C10.81 24.85 10.8 24.86 10.78 24.86C10.76 24.87 10.74 24.88 10.72 24.89C10.7 24.9 10.67 24.91 10.65 24.91C10.64 24.91 10.63 24.91 10.62 24.9C10.61 24.89 10.6 24.88 10.6 24.87C10.59 24.86 10.6 24.85 10.6 24.84C10.6 24.83 10.6 24.82 10.6 24.82C10.6 24.81 10.6 24.81 10.6 24.8C10.59 24.79 10.59 24.79 10.58 24.78C10.57 24.78 10.56 24.78 10.55 24.78C10.53 24.79 10.51 24.8 10.5 24.81C10.48 24.82 10.47 24.83 10.45 24.83C10.44 24.83 10.43 24.83 10.42 24.82C10.41 24.82 10.41 24.81 10.4 24.8C10.4 24.8 10.4 24.79 10.4 24.79C10.4 24.78 10.4 24.78 10.41 24.77C10.41 24.77 10.41 24.76 10.41 24.75C10.41 24.75 10.41 24.74 10.4 24.74C10.4 24.73 10.39 24.73 10.39 24.73C10.38 24.73 10.38 24.73 10.37 24.73C10.36 24.73 10.35 24.73 10.34 24.74C10.33 24.74 10.32 24.75 10.31 24.75C10.3 24.75 10.29 24.75 10.29 24.75C10.28 24.75 10.28 24.74 10.27 24.74C10.27 24.73 10.27 24.73 10.27 24.72C10.27 24.72 10.27 24.71 10.27 24.71C10.27 24.7 10.27 24.7 10.27 24.69C10.28 24.68 10.28 24.68 10.27 24.67C10.27 24.66 10.26 24.66 10.26 24.65C10.25 24.65 10.24 24.65 10.23 24.65C10.21 24.65 10.19 24.66 10.18 24.68C10.17 24.68 10.16 24.69 10.15 24.69C10.14 24.7 10.13 24.7 10.13 24.7C10.12 24.7 10.11 24.7 10.1 24.7C10.09 24.69 10.08 24.68 10.08 24.67C10.08 24.67 10.08 24.66 10.08 24.66C10.08 24.65 10.08 24.65 10.09 24.64C10.09 24.64 10.09 24.63 10.09 24.62C10.09 24.62 10.08 24.61 10.08 24.61C10.08 24.61 10.07 24.6 10.07 24.6C10.06 24.6 10.05 24.6 10.05 24.6C10.04 24.61 10.04 24.61 10.03 24.61C10.03 24.61 10.02 24.61 10.02 24.61C10.01 24.61 10 24.6 10 24.6C9.99 24.59 9.98 24.59 9.98 24.58C9.98 24.57 9.97 24.57 9.97 24.56C9.96 24.55 9.96 24.55 9.95 24.54C9.95 24.54 9.94 24.54 9.93 24.54C9.92 24.54 9.92 24.54 9.91 24.54C9.9 24.55 9.9 24.55 9.9 24.56C9.89 24.56 9.89 24.57 9.89 24.58C9.89 24.59 9.89 24.59 9.9 24.6C9.9 24.61 9.91 24.61 9.91 24.61C9.92 24.62 9.92 24.62 9.93 24.62C9.94 24.62 9.95 24.61 9.95 24.61C9.96 24.6 9.97 24.59 9.97 24.58C9.97 24.57 9.96 24.55 9.95 24.54C9.95 24.54 9.94 24.54 9.93 24.53C9.92 24.53 9.91 24.53 9.9 24.53C9.89 24.53 9.87 24.53 9.86 24.54C9.84 24.55 9.82 24.55 9.81 24.55C9.79 24.56 9.77 24.55 9.76 24.55C9.74 24.54 9.74 24.52 9.73 24.51C9.72 24.5 9.71 24.49 9.69 24.48C9.68 24.48 9.68 24.48 9.67 24.48C9.66 24.48 9.65 24.48 9.64 24.48C9.62 24.49 9.61 24.5 9.59 24.5C9.57 24.51 9.56 24.52 9.54 24.51C9.53 24.51 9.52 24.51 9.51 24.5C9.51 24.5 9.5 24.49 9.5 24.48C9.5 24.47 9.5 24.46 9.5 24.45C9.5 24.44 9.5 24.44 9.5 24.43C9.5 24.43 9.5 24.42 9.5 24.42C9.5 24.41 9.49 24.41 9.49 24.41C9.48 24.4 9.47 24.4 9.47 24.4C9.46 24.41 9.44 24.41 9.43 24.42C9.42 24.42 9.41 24.43 9.4 24.43C9.4 24.43 9.39 24.43 9.38 24.43C9.38 24.43 9.37 24.42 9.37 24.42C9.37 24.41 9.37 24.41 9.37 24.4C9.37 24.39 9.37 24.39 9.37 24.38C9.37 24.38 9.37 24.37 9.37 24.37C9.37 24.36 9.37 24.36 9.37 24.35C9.37 24.35 9.36 24.34 9.36 24.34C9.35 24.34 9.35 24.34 9.34 24.34C9.33 24.34 9.32 24.34 9.31 24.35C9.3 24.35 9.29 24.36 9.27 24.36C9.27 24.36 9.26 24.36 9.26 24.36C9.25 24.36 9.24 24.36 9.24 24.35C9.24 24.35 9.24 24.34 9.24 24.34C9.24 24.33 9.24 24.32 9.24 24.32C9.24 24.31 9.24 24.3 9.24 24.29C9.24 24.28 9.24 24.27 9.23 24.27C9.23 24.26 9.23 24.26 9.22 24.26C9.21 24.25 9.19 24.25 9.18 24.25C9.17 24.25 9.16 24.26 9.15 24.26C9.13 24.27 9.12 24.28 9.11 24.28C9.1 24.29 9.09 24.3 9.08 24.31C9.07 24.31 9.06 24.32 9.05 24.32C9.03 24.32 9.02 24.32 9.01 24.32C9 24.31 9 24.31 8.99 24.3C8.99 24.3 8.98 24.29 8.98 24.29C8.98 24.28 8.98 24.27 8.98 24.25C8.99 24.25 8.99 24.24 8.99 24.24C8.99 24.23 8.99 24.23 8.98 24.22C8.98 24.21 8.97 24.21 8.96 24.2C8.95 24.2 8.94 24.2 8.94 24.2C8.92 24.2 8.9 24.22 8.89 24.23C8.87 24.24 8.85 24.25 8.83 24.25C8.82 24.25 8.82 24.25 8.81 24.24C8.8 24.24 8.79 24.23 8.79 24.22C8.79 24.22 8.79 24.21 8.79 24.21C8.79 24.2 8.79 24.2 8.79 24.19C8.79 24.18 8.79 24.18 8.79 24.17C8.79 24.17 8.79 24.16 8.79 24.16C8.79 24.15 8.78 24.15 8.78 24.15C8.77 24.15 8.76 24.14 8.76 24.15C8.75 24.15 8.73 24.15 8.72 24.16C8.71 24.16 8.7 24.17 8.69 24.17C8.69 24.17 8.68 24.17 8.67 24.17C8.67 24.17 8.66 24.16 8.66 24.16C8.66 24.15 8.66 24.15 8.66 24.14C8.66 24.14 8.66 24.13 8.66 24.13C8.66 24.12 8.66 24.11 8.66 24.11C8.66 24.1 8.66 24.1 8.66 24.09C8.66 24.09 8.65 24.08 8.65 24.08C8.64 24.08 8.64 24.08 8.63 24.08C8.62 24.08 8.61 24.09 8.6 24.09C8.59 24.1 8.57 24.1 8.56 24.11C8.56 24.11 8.55 24.11 8.55 24.1C8.54 24.1 8.53 24.1 8.53 24.09C8.53 24.09 8.53 24.08 8.53 24.08C8.53 24.07 8.53 24.07 8.53 24.06C8.53 24.06 8.53 24.05 8.53 24.04C8.53 24.04 8.53 24.03 8.53 24.03C8.53 24.02 8.52 24.01 8.51 24.01C8.5 24 8.49 24 8.48 24C8.47 24.01 8.45 24.02 8.43 24.03C8.43 24.04 8.42 24.04 8.41 24.05C8.4 24.05 8.39 24.05 8.38 24.06C8.37 24.06 8.36 24.06 8.35 24.05C8.35 24.05 8.34 24.04 8.34 24.03C8.34 24.02 8.34 24.02 8.34 24.01C8.34 24.01 8.34 24 8.34 24C8.34 23.99 8.34 23.98 8.34 23.98C8.34 23.97 8.34 23.97 8.34 23.96C8.33 23.96 8.33 23.96 8.32 23.96C8.32 23.96 8.31 23.96 8.31 23.96C8.3 23.96 8.3 23.96 8.29 23.96C8.28 23.96 8.28 23.96 8.27 23.96C8.27 23.96 8.26 23.96 8.25 23.95C8.25 23.95 8.24 23.94 8.24 23.94C8.23 23.92 8.22 23.91 8.21 23.9C8.2 23.89 8.19 23.89 8.17 23.88C8.16 23.88 8.15 23.88 8.14 23.88C8.12 23.87 8.11 23.87 8.1 23.86C8.09 23.86 8.08 23.85 8.08 23.83C8.08 23.82 8.08 23.81 8.08 23.8C8.08 23.8 8.08 23.79 8.08 23.79C8.08 23.78 8.08 23.78 8.08 23.77C8.08 23.76 8.07 23.76 8.06 23.75C8.05 23.75 8.04 23.75 8.03 23.75C8.01 23.75 8 23.76 7.98 23.77C7.97 23.78 7.95 23.79 7.93 23.8C7.92 23.8 7.91 23.8 7.9 23.79C7.89 23.79 7.89 23.78 7.89 23.77C7.88 23.77 7.88 23.76 7.89 23.75C7.89 23.75 7.89 23.74 7.89 23.74C7.89 23.73 7.89 23.73 7.89 23.72C7.89 23.72 7.89 23.71 7.89 23.71C7.88 23.7 7.88 23.7 7.87 23.7C7.87 23.69 7.86 23.69 7.85 23.69C7.84 23.7 7.83 23.7 7.82 23.71C7.81 23.71 7.8 23.72 7.79 23.72C7.78 23.72 7.78 23.72 7.77 23.72C7.76 23.72 7.76 23.71 7.76 23.71C7.75 23.7 7.75 23.7 7.75 23.69C7.75 23.68 7.76 23.68 7.76 23.67C7.76 23.67 7.76 23.66 7.76 23.66C7.76 23.65 7.76 23.65 7.76 23.64C7.75 23.64 7.75 23.63 7.74 23.63C7.74 23.63 7.73 23.63 7.72 23.63C7.71 23.63 7.7 23.64 7.69 23.64C7.68 23.65 7.67 23.66 7.66 23.66C7.65 23.66 7.65 23.66 7.64 23.65C7.63 23.65 7.63 23.65 7.63 23.64C7.63 23.64 7.62 23.63 7.63 23.62C7.63 23.62 7.63 23.61 7.63 23.61C7.63 23.6 7.63 23.6 7.63 23.59C7.63 23.59 7.63 23.58 7.63 23.58C7.62 23.57 7.62 23.57 7.61 23.57C7.61 23.57 7.6 23.57 7.6 23.57C7.59 23.57 7.59 23.57 7.58 23.57C7.57 23.58 7.57 23.58 7.56 23.58C7.56 23.58 7.55 23.57 7.54 23.57C7.54 23.56 7.53 23.55 7.53 23.54C7.53 23.54 7.54 23.53 7.54 23.52C7.55 23.52 7.56 23.51 7.56 23.51C7.56 23.52 7.56 23.53 7.55 23.53C7.54 23.53 7.54 23.54 7.53 23.54C7.52 23.54 7.52 23.53 7.51 23.53C7.5 23.53 7.5 23.52 7.5 23.51C7.5 23.5 7.5 23.49 7.5 23.48C7.5 23.47 7.5 23.47 7.5 23.46C7.5 23.46 7.5 23.45 7.5 23.45C7.5 23.44 7.49 23.43 7.48 23.43C7.47 23.42 7.46 23.42 7.45 23.42C7.43 23.43 7.42 23.44 7.4 23.45C7.39 23.46 7.37 23.47 7.35 23.47C7.34 23.47 7.33 23.47 7.32 23.47C7.32 23.46 7.31 23.46 7.3 23.45C7.3 23.44 7.3 23.44 7.3 23.43C7.3 23.43 7.3 23.42 7.3 23.42C7.31 23.4 7.31 23.39 7.3 23.38C7.3 23.38 7.3 23.37 7.29 23.37C7.29 23.36 7.28 23.36 7.27 23.36C7.27 23.36 7.26 23.36 7.25 23.37C7.25 23.37 7.24 23.38 7.24 23.38C7.25 23.38 7.26 23.36 7.26 23.35C7.26 23.34 7.25 23.33 7.24 23.32C7.23 23.31 7.22 23.31 7.21 23.31C7.2 23.31 7.19 23.31 7.18 23.32C7.17 23.32 7.15 23.32 7.14 23.32C7.13 23.32 7.12 23.32 7.11 23.32C7.1 23.32 7.1 23.31 7.09 23.3C7.09 23.3 7.08 23.29 7.08 23.29C7.07 23.28 7.07 23.27 7.07 23.27C7.06 23.26 7.05 23.26 7.05 23.25C7.04 23.25 7.02 23.25 7.01 23.25C7 23.25 6.99 23.26 6.98 23.26C6.97 23.27 6.96 23.27 6.95 23.27C6.94 23.27 6.94 23.27 6.93 23.26C6.93 23.26 6.92 23.26 6.92 23.25C6.91 23.25 6.91 23.24 6.91 23.24C6.91 23.23 6.91 23.23 6.91 23.22C6.91 23.21 6.92 23.2 6.92 23.19C6.93 23.18 6.93 23.17 6.93 23.16C6.93 23.15 6.93 23.14 6.93 23.14C6.93 23.13 6.92 23.13 6.92 23.12C6.91 23.12 6.91 23.12 6.9 23.12C6.9 23.12 6.89 23.12 6.88 23.12C6.87 23.12 6.86 23.13 6.85 23.13C6.84 23.14 6.83 23.14 6.82 23.14C6.81 23.14 6.8 23.14 6.8 23.14C6.79 23.14 6.79 23.13 6.79 23.12C6.79 23.12 6.79 23.11 6.79 23.11C6.79 23.1 6.79 23.1 6.79 23.09C6.79 23.09 6.8 23.08 6.8 23.08C6.8 23.07 6.79 23.07 6.79 23.07C6.79 23.06 6.79 23.06 6.79 23.06C6.79 23.06 6.78 23.06 6.78 23.06C6.78 23.06 6.77 23.06 6.77 23.06C6.77 23.06 6.76 23.06 6.76 23.06C6.75 23.06 6.75 23.07 6.74 23.07C6.74 23.07 6.73 23.07 6.73 23.06C6.73 23.06 6.73 23.06 6.72 23.06C6.72 23.06 6.72 23.06 6.72 23.05C6.72 23.05 6.72 23.05 6.72 23.04C6.72 23.04 6.72 23.03 6.72 23.03C6.73 23.02 6.73 23.02 6.73 23.01C6.73 23.01 6.73 23.01 6.73 23C6.73 23 6.73 23 6.72 23C6.72 22.99 6.72 22.99 6.72 22.99C6.71 22.99 6.71 22.99 6.71 22.99C6.7 22.99 6.7 22.99 6.69 23C6.69 23 6.68 23 6.68 23C6.67 23 6.67 23 6.67 23C6.66 23 6.66 23 6.66 23C6.66 22.99 6.66 22.99 6.66 22.99C6.65 22.99 6.65 22.98 6.65 22.98C6.65 22.97 6.66 22.97 6.66 22.96C6.66 22.96 6.66 22.95 6.66 22.95C6.66 22.94 6.66 22.94 6.66 22.94C6.66 22.94 6.66 22.93 6.66 22.93C6.66 22.93 6.65 22.93 6.65 22.93C6.65 22.93 6.65 22.93 6.64 22.93C6.64 22.93 6.63 22.93 6.63 22.93C6.62 22.93 6.62 22.94 6.61 22.94C6.61 22.94 6.61 22.94 6.6 22.94C6.6 22.93 6.6 22.93 6.59 22.93C6.59 22.93 6.59 22.93 6.59 22.92C6.59 22.92 6.59 22.92 6.59 22.92C6.59 22.91 6.59 22.9 6.59 22.9C6.6 22.89 6.6 22.89 6.6 22.88C6.6 22.88 6.6 22.88 6.6 22.87C6.6 22.87 6.6 22.87 6.59 22.87C6.59 22.86 6.59 22.86 6.59 22.86C6.59 22.86 6.58 22.86 6.58 22.86C6.57 22.86 6.57 22.86 6.56 22.86C6.56 22.86 6.55 22.86 6.55 22.87C6.54 22.87 6.54 22.87 6.53 22.87C6.52 22.87 6.52 22.86 6.51 22.86C6.5 22.85 6.5 22.84 6.5 22.84C6.49 22.83 6.49 22.82 6.48 22.82C6.48 22.81 6.47 22.8 6.47 22.8C6.46 22.8 6.45 22.8 6.45 22.8C6.44 22.8 6.44 22.8 6.43 22.8C6.43 22.81 6.42 22.81 6.42 22.81C6.41 22.81 6.41 22.8 6.4 22.8C6.4 22.8 6.39 22.79 6.39 22.79C6.39 22.78 6.39 22.78 6.39 22.77C6.39 22.76 6.39 22.75 6.4 22.74C6.4 22.73 6.41 22.72 6.41 22.71C6.41 22.7 6.41 22.69 6.41 22.69C6.41 22.68 6.41 22.68 6.4 22.67C6.4 22.67 6.39 22.67 6.39 22.67C6.38 22.66 6.37 22.66 6.37 22.67C6.36 22.67 6.35 22.67 6.33 22.68C6.32 22.69 6.31 22.69 6.3 22.69C6.29 22.69 6.29 22.69 6.28 22.69C6.28 22.68 6.27 22.68 6.27 22.67C6.27 22.67 6.27 22.66 6.27 22.66C6.27 22.65 6.27 22.65 6.28 22.64C6.28 22.64 6.28 22.63 6.28 22.62C6.28 22.62 6.28 22.61 6.27 22.61C6.27 22.6 6.26 22.6 6.26 22.6C6.25 22.6 6.25 22.6 6.24 22.6C6.23 22.61 6.23 22.61 6.22 22.61C6.22 22.61 6.21 22.61 6.21 22.61C6.2 22.61 6.19 22.6 6.19 22.6C6.18 22.59 6.18 22.58 6.18 22.58C6.17 22.57 6.17 22.56 6.16 22.56C6.16 22.55 6.15 22.55 6.14 22.54C6.14 22.54 6.13 22.54 6.13 22.55C6.12 22.55 6.12 22.55 6.11 22.55C6.1 22.55 6.1 22.55 6.09 22.55C6.09 22.55 6.09 22.55 6.08 22.55C6.08 22.55 6.08 22.55 6.08 22.54C6.08 22.54 6.08 22.54 6.08 22.54C6.07 22.53 6.07 22.53 6.08 22.53C6.08 22.52 6.08 22.52 6.08 22.51C6.08 22.51 6.08 22.5 6.08 22.49C6.08 22.49 6.08 22.49 6.08 22.49C6.08 22.48 6.08 22.48 6.08 22.48C6.08 22.48 6.07 22.48 6.07 22.48C6.07 22.47 6.07 22.47 6.06 22.47C6.06 22.48 6.05 22.48 6.05 22.48C6.04 22.48 6.04 22.48 6.03 22.48C6.03 22.48 6.02 22.48 6.02 22.48C6.02 22.48 6.02 22.48 6.01 22.48C6.01 22.48 6.01 22.47 6.01 22.47C6.01 22.47 6.01 22.47 6.01 22.46C6.01 22.46 6.01 22.45 6.01 22.45C6.02 22.44 6.02 22.44 6.02 22.43C6.02 22.43 6.02 22.43 6.02 22.42C6.02 22.42 6.02 22.42 6.01 22.41C6.01 22.41 6.01 22.41 6.01 22.41C6 22.41 6 22.41 6 22.41C5.99 22.41 5.99 22.41 5.98 22.41C5.98 22.42 5.97 22.42 5.97 22.42C5.96 22.42 5.96 22.42 5.96 22.42C5.95 22.42 5.95 22.42 5.95 22.41C5.95 22.41 5.95 22.41 5.95 22.41C5.94 22.4 5.94 22.4 5.94 22.4C5.94 22.39 5.95 22.39 5.95 22.38C5.95 22.38 5.95 22.37 5.95 22.37C5.95 22.36 5.95 22.36 5.95 22.36C5.95 22.36 5.95 22.35 5.95 22.35C5.95 22.35 5.94 22.35 5.94 22.35C5.94 22.35 5.94 22.34 5.93 22.35C5.93 22.35 5.92 22.35 5.92 22.35C5.91 22.35 5.91 22.35 5.9 22.35C5.9 22.35 5.9 22.35 5.89 22.35C5.89 22.35 5.89 22.35 5.88 22.35C5.88 22.35 5.88 22.35 5.88 22.34C5.88 22.34 5.88 22.34 5.88 22.34C5.88 22.33 5.88 22.32 5.88 22.32C5.88 22.31 5.88 22.31 5.89 22.3C5.89 22.3 5.89 22.29 5.88 22.29C5.88 22.28 5.88 22.28 5.87 22.27C5.87 22.27 5.86 22.27 5.85 22.27C5.84 22.27 5.83 22.28 5.82 22.29C5.81 22.29 5.8 22.3 5.79 22.3C5.78 22.3 5.77 22.3 5.77 22.3C5.76 22.3 5.76 22.29 5.76 22.29C5.75 22.28 5.75 22.27 5.75 22.27C5.76 22.26 5.76 22.26 5.76 22.25C5.76 22.25 5.76 22.24 5.76 22.24C5.76 22.23 5.76 22.23 5.76 22.23C5.76 22.23 5.76 22.22 5.76 22.22C5.75 22.22 5.75 22.22 5.75 22.22C5.75 22.22 5.74 22.22 5.74 22.22C5.73 22.22 5.73 22.22 5.72 22.22C5.72 22.22 5.71 22.23 5.71 22.23C5.7 22.23 5.7 22.23 5.7 22.23C5.7 22.22 5.69 22.22 5.69 22.22C5.69 22.22 5.69 22.22 5.69 22.21C5.69 22.21 5.69 22.21 5.69 22.21C5.69 22.2 5.69 22.19 5.69 22.19C5.69 22.18 5.7 22.18 5.7 22.17C5.7 22.17 5.7 22.17 5.7 22.16C5.69 22.16 5.69 22.16 5.69 22.16C5.69 22.15 5.69 22.15 5.68 22.15C5.68 22.15 5.68 22.15 5.68 22.15C5.67 22.15 5.66 22.15 5.66 22.16C5.65 22.16 5.65 22.16 5.64 22.16C5.64 22.16 5.64 22.16 5.63 22.16C5.63 22.16 5.63 22.16 5.63 22.16C5.62 22.15 5.62 22.15 5.62 22.15C5.62 22.15 5.62 22.14 5.62 22.14C5.62 22.14 5.62 22.13 5.63 22.12C5.63 22.12 5.63 22.11 5.63 22.11C5.63 22.11 5.63 22.1 5.63 22.1C5.63 22.1 5.63 22.09 5.63 22.09C5.62 22.09 5.62 22.09 5.62 22.09C5.62 22.09 5.61 22.09 5.61 22.09C5.6 22.09 5.6 22.09 5.59 22.09C5.59 22.09 5.58 22.1 5.58 22.1C5.58 22.1 5.57 22.1 5.57 22.1C5.57 22.1 5.56 22.09 5.56 22.09C5.56 22.09 5.56 22.09 5.56 22.08C5.56 22.08 5.56 22.08 5.56 22.08C5.56 22.07 5.56 22.07 5.56 22.06C5.56 22.05 5.57 22.05 5.57 22.04C5.57 22.04 5.57 22.04 5.57 22.04C5.57 22.03 5.56 22.03 5.56 22.03C5.56 22.03 5.56 22.02 5.55 22.02C5.55 22.02 5.55 22.02 5.55 22.02C5.54 22.02 5.54 22.02 5.53 22.03C5.52 22.03 5.52 22.03 5.51 22.03C5.51 22.03 5.51 22.03 5.51 22.03C5.5 22.03 5.5 22.03 5.5 22.03C5.5 22.03 5.49 22.02 5.49 22.02C5.49 22.02 5.49 22.02 5.49 22.01C5.49 22.01 5.49 22 5.49 22C5.49 21.99 5.5 21.99 5.5 21.98C5.5 21.97 5.5 21.97 5.5 21.96C5.5 21.96 5.49 21.95 5.49 21.95C5.48 21.95 5.47 21.95 5.47 21.95C5.46 21.95 5.44 21.95 5.43 21.96C5.42 21.97 5.41 21.97 5.4 21.98C5.39 21.98 5.39 21.98 5.38 21.97C5.38 21.97 5.37 21.97 5.37 21.96C5.37 21.96 5.36 21.95 5.37 21.95C5.37 21.94 5.37 21.94 5.37 21.93C5.37 21.93 5.37 21.92 5.37 21.91C5.37 21.91 5.37 21.9 5.37 21.9C5.37 21.89 5.36 21.89 5.35 21.89C5.35 21.89 5.34 21.88 5.34 21.89C5.32 21.89 5.31 21.89 5.3 21.9C5.29 21.91 5.28 21.91 5.27 21.91C5.26 21.92 5.26 21.91 5.25 21.91C5.25 21.91 5.24 21.9 5.24 21.9C5.24 21.89 5.24 21.89 5.24 21.88C5.24 21.88 5.24 21.87 5.24 21.87C5.25 21.86 5.25 21.85 5.25 21.85C5.25 21.85 5.25 21.84 5.24 21.84C5.24 21.84 5.24 21.84 5.24 21.83C5.24 21.83 5.23 21.83 5.23 21.83C5.23 21.83 5.23 21.83 5.22 21.83C5.22 21.83 5.21 21.83 5.21 21.84C5.2 21.84 5.2 21.84 5.19 21.84C5.19 21.84 5.18 21.84 5.18 21.84C5.18 21.84 5.18 21.84 5.17 21.83C5.17 21.83 5.17 21.83 5.17 21.83C5.17 21.82 5.17 21.82 5.17 21.82C5.17 21.81 5.17 21.81 5.17 21.8C5.18 21.8 5.18 21.79 5.18 21.79C5.18 21.78 5.18 21.78 5.18 21.78C5.18 21.77 5.18 21.77 5.17 21.77C5.17 21.77 5.17 21.77 5.17 21.77C5.16 21.76 5.16 21.76 5.16 21.76C5.15 21.77 5.15 21.77 5.14 21.77C5.14 21.77 5.13 21.77 5.13 21.77C5.12 21.77 5.12 21.77 5.12 21.77C5.11 21.77 5.11 21.77 5.11 21.77C5.11 21.77 5.11 21.77 5.11 21.76C5.11 21.76 5.11 21.76 5.11 21.75C5.11 21.75 5.11 21.74 5.11 21.74C5.11 21.73 5.11 21.73 5.11 21.72C5.12 21.72 5.12 21.72 5.11 21.71C5.11 21.71 5.11 21.71 5.11 21.71C5.11 21.7 5.11 21.7 5.1 21.7C5.1 21.7 5.1 21.7 5.09 21.7C5.09 21.7 5.08 21.7 5.08 21.71C5.07 21.71 5.07 21.71 5.06 21.71C5.06 21.71 5.06 21.71 5.05 21.71C5.05 21.71 5.05 21.71 5.05 21.71C5.04 21.7 5.04 21.7 5.04 21.7C5.04 21.7 5.04 21.69 5.04 21.69C5.04 21.68 5.04 21.68 5.05 21.67C5.05 21.67 5.05 21.66 5.05 21.66C5.05 21.65 5.05 21.65 5.05 21.65C5.05 21.65 5.05 21.64 5.05 21.64C5.04 21.64 5.04 21.64 5.04 21.64C5.04 21.64 5.03 21.64 5.03 21.64C5.02 21.64 5.02 21.64 5.01 21.64C5.01 21.64 5 21.64 5 21.65C4.99 21.65 4.99 21.65 4.99 21.64C4.99 21.64 4.98 21.64 4.98 21.64C4.98 21.64 4.98 21.64 4.98 21.63C4.98 21.63 4.98 21.63 4.98 21.62C4.98 21.62 4.98 21.61 4.98 21.61C4.98 21.6 4.99 21.6 4.99 21.59C4.99 21.59 4.99 21.59 4.99 21.58C4.98 21.58 4.98 21.58 4.98 21.58C4.98 21.57 4.98 21.57 4.97 21.57C4.97 21.57 4.97 21.57 4.97 21.57C4.96 21.57 4.95 21.57 4.95 21.58C4.94 21.58 4.94 21.58 4.93 21.58C4.93 21.58 4.93 21.58 4.92 21.58C4.92 21.58 4.92 21.58 4.92 21.58C4.91 21.57 4.91 21.57 4.91 21.57C4.91 21.57 4.91 21.56 4.91 21.56C4.91 21.55 4.91 21.55 4.91 21.54C4.92 21.54 4.92 21.53 4.92 21.53C4.92 21.53 4.92 21.52 4.92 21.52C4.92 21.52 4.92 21.51 4.92 21.51C4.91 21.51 4.91 21.51 4.91 21.51C4.91 21.5 4.9 21.5 4.9 21.5C4.9 21.5 4.89 21.5 4.89 21.51C4.88 21.51 4.87 21.51 4.87 21.51C4.86 21.51 4.86 21.51 4.85 21.51C4.84 21.51 4.84 21.51 4.83 21.5C4.83 21.49 4.82 21.49 4.82 21.48C4.82 21.47 4.81 21.47 4.81 21.46C4.8 21.45 4.79 21.45 4.79 21.45C4.78 21.45 4.78 21.45 4.77 21.45C4.77 21.45 4.76 21.45 4.75 21.45C4.75 21.45 4.74 21.45 4.74 21.45C4.73 21.45 4.73 21.45 4.72 21.45C4.72 21.44 4.71 21.44 4.71 21.43C4.71 21.43 4.71 21.42 4.71 21.41C4.71 21.4 4.72 21.39 4.73 21.38C4.73 21.37 4.74 21.36 4.74 21.35C4.74 21.34 4.74 21.34 4.74 21.33C4.73 21.32 4.73 21.32 4.72 21.32C4.72 21.32 4.71 21.32 4.71 21.32C4.7 21.32 4.7 21.32 4.69 21.32C4.68 21.32 4.68 21.32 4.67 21.32C4.67 21.32 4.66 21.32 4.66 21.32C4.65 21.31 4.65 21.31 4.65 21.3C4.65 21.3 4.65 21.29 4.66 21.29C4.66 21.28 4.66 21.28 4.66 21.27C4.66 21.26 4.66 21.26 4.66 21.25C4.66 21.25 4.65 21.24 4.65 21.24C4.64 21.24 4.63 21.24 4.63 21.24C4.62 21.24 4.6 21.25 4.59 21.25C4.58 21.26 4.57 21.27 4.56 21.27C4.55 21.27 4.55 21.27 4.54 21.27C4.54 21.26 4.53 21.26 4.53 21.25C4.53 21.25 4.53 21.24 4.53 21.24C4.53 21.23 4.53 21.23 4.53 21.22C4.53 21.22 4.54 21.21 4.54 21.2C4.53 21.2 4.53 21.19 4.53 21.19C4.53 21.18 4.52 21.18 4.51 21.18C4.51 21.18 4.5 21.18 4.5 21.19C4.49 21.19 4.49 21.19 4.48 21.19C4.48 21.19 4.47 21.19 4.46 21.19C4.46 21.19 4.45 21.18 4.45 21.18C4.45 21.17 4.45 21.16 4.45 21.16C4.45 21.15 4.46 21.13 4.47 21.12C4.47 21.11 4.48 21.1 4.48 21.09C4.48 21.08 4.48 21.08 4.48 21.07C4.47 21.07 4.47 21.06 4.46 21.06C4.46 21.06 4.45 21.06 4.45 21.06C4.44 21.06 4.44 21.06 4.43 21.06C4.43 21.07 4.42 21.07 4.42 21.07C4.41 21.07 4.41 21.07 4.41 21.06C4.4 21.06 4.4 21.06 4.4 21.06C4.4 21.06 4.4 21.05 4.4 21.05C4.4 21.05 4.4 21.05 4.4 21.04C4.4 21.04 4.4 21.03 4.4 21.03C4.4 21.02 4.4 21.02 4.4 21.01C4.4 21.01 4.4 21.01 4.4 21C4.4 21 4.4 21 4.4 21C4.4 20.99 4.4 20.99 4.39 20.99C4.39 20.99 4.39 20.99 4.39 20.99C4.38 20.99 4.37 20.99 4.37 20.99C4.36 20.99 4.36 20.99 4.35 21C4.35 21 4.34 21 4.34 21C4.33 20.99 4.33 20.99 4.32 20.98C4.32 20.98 4.32 20.97 4.32 20.97C4.32 20.95 4.33 20.94 4.33 20.93C4.34 20.92 4.35 20.91 4.35 20.9C4.35 20.89 4.35 20.89 4.35 20.88C4.34 20.87 4.34 20.87 4.34 20.87C4.33 20.86 4.33 20.86 4.32 20.86C4.31 20.86 4.31 20.86 4.3 20.86C4.3 20.87 4.29 20.87 4.29 20.87C4.28 20.87 4.28 20.87 4.27 20.87C4.27 20.86 4.26 20.86 4.26 20.85C4.25 20.85 4.25 20.84 4.25 20.84C4.25 20.83 4.25 20.81 4.26 20.8C4.26 20.79 4.27 20.78 4.27 20.77C4.27 20.76 4.28 20.75 4.27 20.74C4.27 20.73 4.26 20.73 4.26 20.72C4.25 20.72 4.25 20.71 4.24 20.71C4.23 20.71 4.22 20.71 4.21 20.7C4.19 20.7 4.18 20.7 4.17 20.7C4.16 20.69 4.16 20.69 4.15 20.69C4.15 20.68 4.14 20.68 4.14 20.67C4.14 20.66 4.14 20.65 4.14 20.64C4.15 20.63 4.15 20.62 4.16 20.6C4.16 20.59 4.16 20.58 4.16 20.57C4.16 20.56 4.16 20.56 4.16 20.55C4.15 20.55 4.15 20.55 4.14 20.54C4.14 20.54 4.13 20.54 4.13 20.54C4.12 20.54 4.11 20.55 4.11 20.55C4.1 20.55 4.1 20.55 4.09 20.55C4.09 20.55 4.08 20.55 4.08 20.54C4.07 20.54 4.07 20.53 4.07 20.53C4.07 20.52 4.07 20.52 4.07 20.51C4.07 20.51 4.08 20.5 4.08 20.5C4.08 20.49 4.08 20.48 4.08 20.48C4.08 20.47 4.07 20.46 4.07 20.46C4.06 20.45 4.05 20.45 4.05 20.44C4.04 20.44 4.03 20.44 4.03 20.43C4.02 20.43 4.02 20.42 4.01 20.41C4.01 20.41 4.01 20.4 4.01 20.4C4.01 20.39 4.01 20.39 4.01 20.38C4.02 20.37 4.02 20.36 4.03 20.35C4.03 20.34 4.03 20.32 4.03 20.31C4.03 20.31 4.03 20.3 4.03 20.3C4.02 20.29 4.02 20.29 4.01 20.29C4.01 20.28 4 20.28 4 20.28C3.99 20.29 3.99 20.29 3.98 20.29C3.97 20.29 3.97 20.29 3.96 20.29C3.96 20.29 3.95 20.29 3.95 20.29C3.94 20.28 3.94 20.28 3.94 20.27C3.94 20.26 3.94 20.26 3.94 20.25C3.94 20.25 3.95 20.24 3.95 20.24C3.95 20.23 3.95 20.23 3.95 20.22C3.95 20.21 3.94 20.21 3.94 20.2C3.93 20.2 3.92 20.19 3.92 20.19C3.91 20.18 3.9 20.18 3.9 20.18C3.89 20.17 3.89 20.16 3.88 20.16C3.88 20.15 3.88 20.14 3.88 20.14C3.88 20.13 3.89 20.13 3.89 20.12C3.89 20.12 3.89 20.11 3.89 20.11C3.89 20.1 3.89 20.1 3.88 20.09C3.88 20.09 3.87 20.08 3.87 20.08C3.86 20.08 3.86 20.08 3.85 20.08C3.84 20.09 3.83 20.09 3.82 20.09C3.81 20.09 3.8 20.09 3.79 20.09C3.79 20.08 3.78 20.08 3.78 20.07C3.77 20.05 3.76 20.04 3.77 20.02C3.77 20 3.77 19.99 3.78 19.97C3.79 19.96 3.8 19.94 3.82 19.93C3.83 19.92 3.84 19.91 3.85 19.89C3.86 19.88 3.87 19.86 3.87 19.84C3.87 19.83 3.87 19.81 3.86 19.8C3.86 19.79 3.85 19.78 3.84 19.78C3.84 19.77 3.83 19.77 3.82 19.77C3.81 19.77 3.8 19.77 3.79 19.77C3.78 19.77 3.78 19.77 3.77 19.77C3.76 19.77 3.76 19.77 3.75 19.77C3.75 19.77 3.75 19.76 3.74 19.75C3.74 19.75 3.74 19.74 3.74 19.74C3.74 19.73 3.75 19.71 3.76 19.7C3.76 19.69 3.77 19.68 3.77 19.67C3.77 19.66 3.77 19.66 3.77 19.65C3.76 19.65 3.76 19.64 3.75 19.64C3.75 19.64 3.74 19.63 3.74 19.63C3.73 19.63 3.73 19.63 3.72 19.64C3.71 19.64 3.7 19.64 3.69 19.64C3.68 19.64 3.68 19.64 3.67 19.63C3.67 19.63 3.66 19.62 3.66 19.62C3.65 19.6 3.65 19.59 3.65 19.58C3.66 19.56 3.66 19.55 3.67 19.54C3.68 19.53 3.69 19.52 3.69 19.51C3.7 19.5 3.71 19.49 3.72 19.48C3.72 19.47 3.73 19.45 3.73 19.44C3.73 19.43 3.73 19.41 3.72 19.4C3.72 19.4 3.71 19.39 3.71 19.39C3.7 19.38 3.7 19.38 3.69 19.38C3.68 19.38 3.67 19.39 3.66 19.39C3.65 19.39 3.65 19.39 3.64 19.39C3.63 19.39 3.63 19.39 3.63 19.38C3.62 19.38 3.62 19.37 3.62 19.37C3.62 19.36 3.62 19.35 3.62 19.35C3.62 19.34 3.63 19.33 3.63 19.32L3.63 18.93C3.63 18.92 3.63 18.91 3.63 18.9C3.63 18.89 3.63 18.89 3.63 18.88C3.63 18.87 3.63 18.87 3.63 18.87C3.62 18.86 3.62 18.86 3.61 18.86C3.61 18.86 3.6 18.86 3.59 18.86C3.58 18.86 3.57 18.87 3.56 18.86C3.55 18.86 3.55 18.86 3.54 18.86C3.54 18.86 3.53 18.85 3.53 18.85C3.52 18.84 3.52 18.82 3.52 18.81C3.52 18.8 3.52 18.78 3.53 18.77C3.53 18.76 3.54 18.75 3.55 18.74C3.56 18.72 3.58 18.7 3.59 18.67C3.59 18.66 3.59 18.65 3.59 18.63C3.58 18.62 3.57 18.61 3.56 18.61C3.55 18.6 3.54 18.6 3.53 18.6C3.52 18.6 3.51 18.61 3.5 18.61C3.48 18.61 3.46 18.6 3.45 18.59C3.43 18.58 3.42 18.57 3.41 18.56C3.4 18.53 3.39 18.49 3.4 18.46C3.41 18.43 3.42 18.4 3.44 18.37C3.46 18.34 3.48 18.31 3.5 18.28C3.5 18.27 3.51 18.26 3.51 18.25C3.51 18.24 3.51 18.24 3.51 18.23C3.51 18.23 3.5 18.22 3.5 18.22C3.49 18.22 3.49 18.22 3.48 18.22C3.47 18.22 3.47 18.22 3.46 18.22C3.46 18.22 3.45 18.23 3.45 18.23C3.44 18.23 3.44 18.23 3.44 18.22C3.44 18.22 3.43 18.22 3.43 18.22C3.43 18.22 3.43 18.21 3.43 18.2C3.43 18.2 3.43 18.19 3.43 18.19C3.43 18.18 3.43 18.17 3.43 18.15L3.43 18.09L3.43 17.64C3.43 17.63 3.43 17.62 3.43 17.61C3.43 17.6 3.43 17.59 3.43 17.59C3.43 17.59 3.43 17.58 3.43 17.58C3.43 17.58 3.43 17.58 3.43 17.57C3.43 17.57 3.44 17.57 3.44 17.57C3.44 17.57 3.44 17.57 3.45 17.57C3.45 17.57 3.46 17.57 3.46 17.57C3.47 17.58 3.47 17.58 3.48 17.58C3.48 17.58 3.49 17.58 3.49 17.58C3.49 17.58 3.49 17.58 3.5 17.57C3.5 17.57 3.5 17.57 3.5 17.57C3.5 17.56 3.5 17.56 3.5 17.56C3.5 17.55 3.5 17.55 3.5 17.54C3.5 17.53 3.5 17.52 3.5 17.51L3.5 17.44C3.5 17.41 3.5 17.38 3.5 17.36C3.51 17.33 3.52 17.3 3.53 17.27C3.54 17.24 3.55 17.21 3.55 17.18C3.55 17.17 3.54 17.15 3.54 17.14C3.53 17.13 3.51 17.12 3.5 17.12C3.49 17.12 3.47 17.13 3.46 17.13C3.46 17.13 3.45 17.13 3.45 17.13C3.44 17.13 3.44 17.13 3.43 17.12C3.43 17.12 3.42 17.11 3.42 17.11C3.42 17.1 3.42 17.1 3.42 17.09C3.42 17.08 3.43 17.07 3.43 17.06C3.44 17.03 3.43 17 3.42 16.97C3.41 16.94 3.39 16.91 3.38 16.88C3.37 16.86 3.36 16.82 3.37 16.79C3.37 16.78 3.38 16.76 3.39 16.75C3.4 16.74 3.42 16.74 3.43 16.73C3.44 16.73 3.45 16.74 3.46 16.74C3.48 16.74 3.49 16.74 3.5 16.73C3.5 16.73 3.51 16.72 3.51 16.72C3.52 16.71 3.52 16.7 3.52 16.69C3.52 16.67 3.51 16.65 3.5 16.64C3.49 16.62 3.48 16.61 3.48 16.59C3.48 16.58 3.48 16.57 3.48 16.56C3.48 16.55 3.49 16.55 3.5 16.54C3.51 16.54 3.52 16.54 3.53 16.54C3.54 16.54 3.55 16.54 3.56 16.54C3.58 16.54 3.6 16.54 3.61 16.53C3.63 16.52 3.64 16.51 3.65 16.49C3.67 16.47 3.68 16.43 3.67 16.39C3.67 16.36 3.65 16.33 3.63 16.3C3.61 16.27 3.59 16.24 3.56 16.22C3.54 16.2 3.52 16.18 3.5 16.15C3.49 16.13 3.48 16.1 3.47 16.08C3.47 16.05 3.47 16.02 3.49 15.99C3.5 15.98 3.51 15.97 3.52 15.97C3.53 15.96 3.55 15.96 3.56 15.96C3.57 15.96 3.58 15.97 3.59 15.97C3.6 15.97 3.61 15.97 3.61 15.97C3.62 15.97 3.62 15.96 3.63 15.96C3.63 15.96 3.63 15.95 3.63 15.95C3.63 15.94 3.63 15.93 3.63 15.93C3.63 15.92 3.63 15.91 3.63 15.9C3.62 15.86 3.63 15.83 3.63 15.8C3.64 15.78 3.64 15.77 3.64 15.75C3.64 15.73 3.63 15.72 3.63 15.7C3.62 15.69 3.61 15.68 3.6 15.67C3.59 15.66 3.59 15.65 3.58 15.64C3.57 15.63 3.57 15.62 3.56 15.61C3.56 15.6 3.56 15.59 3.56 15.57L3.56 15.06L3.56 14.99C3.56 14.98 3.56 14.97 3.56 14.96C3.56 14.95 3.57 14.95 3.57 14.94C3.57 14.94 3.56 14.93 3.56 14.93C3.56 14.92 3.55 14.92 3.55 14.92C3.54 14.92 3.54 14.92 3.53 14.92C3.52 14.92 3.51 14.93 3.5 14.93C3.49 14.93 3.48 14.93 3.47 14.92C3.46 14.92 3.46 14.91 3.45 14.91C3.44 14.89 3.44 14.88 3.44 14.86C3.44 14.84 3.45 14.83 3.46 14.81C3.46 14.8 3.47 14.78 3.49 14.77C3.5 14.76 3.51 14.75 3.52 14.73C3.53 14.72 3.53 14.7 3.54 14.69C3.54 14.67 3.54 14.65 3.53 14.64C3.53 14.63 3.52 14.62 3.52 14.62C3.51 14.61 3.5 14.61 3.5 14.6C3.49 14.6 3.47 14.6 3.46 14.6C3.45 14.61 3.44 14.61 3.43 14.6C3.42 14.6 3.4 14.59 3.4 14.58C3.39 14.56 3.39 14.55 3.39 14.53C3.39 14.5 3.41 14.47 3.43 14.44C3.45 14.42 3.47 14.39 3.47 14.36C3.47 14.34 3.47 14.33 3.47 14.31C3.46 14.3 3.45 14.29 3.43 14.28C3.42 14.28 3.41 14.28 3.4 14.28C3.39 14.28 3.38 14.28 3.37 14.28C3.35 14.28 3.34 14.27 3.32 14.27C3.31 14.26 3.3 14.24 3.29 14.23C3.28 14.2 3.28 14.17 3.28 14.13C3.3 14.07 3.34 14.02 3.37 13.96C3.37 13.95 3.38 13.94 3.38 13.93C3.38 13.92 3.38 13.91 3.38 13.91C3.37 13.9 3.37 13.9 3.37 13.89C3.36 13.89 3.36 13.89 3.35 13.89C3.35 13.89 3.34 13.89 3.34 13.89C3.32 13.89 3.31 13.89 3.3 13.89C3.24 13.91 3.17 13.9 3.11 13.87C3.06 13.83 3.02 13.77 3.01 13.71C3 13.64 3.02 13.57 3.06 13.52C3.11 13.47 3.17 13.44 3.24 13.44L3.24 13.44Z" />
			<path id="path5044" class="shp1" d="M22.04 10.04C21.92 10.04 21.9 10.21 22.11 10.45C22.13 10.48 22.16 10.51 22.18 10.54C22.21 10.57 22.24 10.61 22.26 10.64C22.29 10.67 22.32 10.71 22.34 10.74C22.37 10.78 22.4 10.81 22.42 10.85C22.45 10.88 22.48 10.92 22.5 10.96C22.53 10.99 22.55 11.03 22.58 11.06C22.6 11.1 22.63 11.14 22.65 11.17C22.68 11.21 22.7 11.24 22.73 11.28C22.75 11.32 22.77 11.35 22.8 11.39C22.82 11.42 22.84 11.46 22.87 11.5C22.89 11.53 22.91 11.57 22.93 11.61C22.95 11.64 22.97 11.68 22.99 11.72C23.01 11.76 23.03 11.79 23.05 11.83C23.07 11.87 23.09 11.91 23.1 11.94C23.12 11.98 23.14 12.02 23.16 12.06C23.17 12.09 23.19 12.13 23.2 12.17C23.22 12.21 23.23 12.25 23.25 12.28C23.26 12.32 23.28 12.36 23.29 12.4C23.3 12.44 23.31 12.47 23.33 12.51C23.34 12.55 23.35 12.59 23.36 12.63C23.37 12.67 23.38 12.71 23.39 12.74C23.4 12.78 23.41 12.82 23.42 12.86C23.43 12.9 23.44 12.94 23.45 12.98C23.45 13.01 23.46 13.05 23.47 13.09C23.47 13.13 23.48 13.17 23.49 13.2C23.49 13.24 23.5 13.28 23.5 13.32C23.51 13.35 23.51 13.39 23.52 13.43C23.52 13.46 23.52 13.5 23.52 13.53C23.53 13.57 23.53 13.61 23.53 13.64C23.53 13.68 23.53 13.71 23.53 13.75C23.53 13.78 23.53 13.81 23.53 13.85C23.53 13.88 23.53 13.92 23.53 13.95C23.53 13.98 23.53 14.02 23.52 14.05C23.52 14.08 23.52 14.12 23.52 14.15C23.51 14.18 23.51 14.21 23.5 14.25C23.5 14.28 23.49 14.31 23.48 14.34C23.48 14.37 23.47 14.4 23.46 14.43C23.46 14.47 23.45 14.5 23.44 14.53C23.43 14.56 23.42 14.59 23.41 14.62C23.4 14.64 23.39 14.67 23.38 14.7C23.37 14.73 23.36 14.76 23.35 14.78C23.33 14.81 23.32 14.84 23.31 14.86C23.29 14.89 23.28 14.91 23.26 14.93C23.25 14.96 23.23 14.98 23.22 15C23.2 15.02 23.18 15.05 23.17 15.07C23.15 15.09 23.13 15.11 23.12 15.13C23.1 15.14 23.08 15.16 23.06 15.18C23.04 15.2 23.03 15.21 23.01 15.23C22.99 15.24 22.97 15.26 22.96 15.27C22.94 15.29 22.92 15.3 22.9 15.31C22.89 15.32 22.87 15.33 22.86 15.34C22.84 15.35 22.82 15.36 22.81 15.37C22.79 15.38 22.78 15.39 22.77 15.4C22.76 15.41 22.75 15.41 22.73 15.42C22.72 15.42 22.71 15.43 22.7 15.44C22.69 15.44 22.69 15.45 22.68 15.45C22.67 15.45 22.67 15.46 22.66 15.46C22.21 15.7 22.36 15.99 22.81 15.74C22.82 15.74 22.83 15.74 22.84 15.73C22.85 15.73 22.86 15.72 22.87 15.71C22.88 15.71 22.89 15.7 22.9 15.7C22.91 15.69 22.92 15.68 22.94 15.67C22.95 15.66 22.96 15.66 22.98 15.65C23 15.64 23.01 15.62 23.03 15.61C23.05 15.6 23.07 15.59 23.09 15.57C23.11 15.56 23.13 15.54 23.15 15.53C23.17 15.51 23.2 15.49 23.22 15.47C23.24 15.45 23.26 15.43 23.28 15.41C23.31 15.39 23.33 15.37 23.35 15.35C23.37 15.32 23.39 15.3 23.41 15.27C23.43 15.24 23.45 15.22 23.47 15.19C23.49 15.16 23.51 15.14 23.53 15.11C23.55 15.08 23.57 15.05 23.59 15.02C23.6 14.99 23.62 14.95 23.63 14.92C23.65 14.89 23.66 14.86 23.68 14.82C23.69 14.79 23.7 14.75 23.72 14.72C23.73 14.69 23.74 14.65 23.75 14.61C23.76 14.58 23.77 14.54 23.78 14.51C23.78 14.47 23.79 14.44 23.8 14.4C23.81 14.37 23.81 14.33 23.82 14.3C23.82 14.26 23.83 14.22 23.83 14.19C23.84 14.15 23.84 14.11 23.84 14.08C23.85 14.04 23.85 14 23.85 13.97C23.85 13.93 23.85 13.89 23.85 13.85C23.85 13.82 23.85 13.78 23.85 13.74C23.85 13.7 23.85 13.66 23.85 13.63C23.85 13.59 23.85 13.55 23.84 13.51C23.84 13.47 23.84 13.44 23.83 13.4C23.83 13.36 23.82 13.32 23.82 13.28C23.81 13.24 23.81 13.2 23.8 13.16C23.8 13.12 23.79 13.08 23.78 13.04C23.77 12.99 23.77 12.95 23.76 12.91C23.75 12.87 23.74 12.83 23.73 12.79C23.72 12.75 23.71 12.71 23.7 12.66C23.69 12.62 23.68 12.58 23.67 12.54C23.66 12.5 23.64 12.46 23.63 12.42C23.62 12.38 23.6 12.34 23.59 12.3C23.58 12.25 23.56 12.21 23.55 12.17C23.53 12.13 23.52 12.09 23.5 12.05C23.48 12.01 23.47 11.97 23.45 11.93C23.43 11.89 23.41 11.85 23.39 11.81C23.37 11.77 23.36 11.73 23.34 11.69C23.32 11.65 23.3 11.61 23.27 11.57C23.25 11.53 23.23 11.49 23.21 11.45C23.19 11.41 23.16 11.37 23.14 11.33C23.12 11.29 23.09 11.26 23.07 11.22C23.04 11.18 23.02 11.14 22.99 11.1C22.97 11.07 22.94 11.03 22.92 10.99C22.89 10.95 22.87 10.92 22.84 10.88C22.81 10.84 22.79 10.81 22.76 10.77C22.73 10.73 22.71 10.7 22.68 10.66C22.65 10.62 22.63 10.59 22.6 10.55C22.57 10.51 22.54 10.48 22.51 10.44C22.48 10.41 22.46 10.37 22.43 10.33C22.4 10.3 22.38 10.27 22.35 10.24C22.23 10.1 22.12 10.04 22.04 10.04L22.04 10.04Z" />
			<path id="path5060" class="shp1" d="M22.14 10.08C21.8 10.1 21.82 10.35 22.27 10.41C22.27 10.41 22.27 10.41 22.27 10.41C22.27 10.41 22.27 10.41 22.28 10.41C22.29 10.41 22.29 10.42 22.3 10.42C22.31 10.42 22.32 10.43 22.32 10.43C22.34 10.43 22.35 10.44 22.36 10.44C22.37 10.45 22.38 10.46 22.4 10.46C22.41 10.47 22.43 10.48 22.44 10.49C22.46 10.5 22.47 10.5 22.49 10.51C22.51 10.52 22.52 10.53 22.54 10.54C22.56 10.55 22.58 10.57 22.6 10.58C22.62 10.59 22.64 10.6 22.66 10.61C22.68 10.63 22.7 10.64 22.72 10.65C22.74 10.67 22.76 10.68 22.79 10.69C22.81 10.71 22.83 10.73 22.85 10.74C22.88 10.76 22.9 10.77 22.92 10.79C22.95 10.81 22.97 10.82 22.99 10.84C23.02 10.86 23.04 10.87 23.06 10.89C23.09 10.91 23.11 10.93 23.13 10.95C23.16 10.97 23.18 10.98 23.2 11C23.23 11.02 23.25 11.04 23.28 11.06C23.3 11.08 23.33 11.11 23.35 11.13C23.38 11.15 23.4 11.17 23.42 11.19C23.45 11.21 23.47 11.23 23.5 11.25C23.52 11.28 23.55 11.3 23.57 11.32C23.6 11.35 23.62 11.37 23.64 11.39C23.67 11.42 23.69 11.44 23.72 11.46C23.74 11.49 23.76 11.51 23.79 11.54C23.81 11.56 23.83 11.59 23.86 11.61C23.88 11.64 23.9 11.67 23.92 11.69C23.94 11.71 23.93 11.7 23.95 11.72C24.27 12.11 24.52 11.91 24.19 11.52C24.18 11.5 24.18 11.51 24.17 11.49C24.14 11.46 24.12 11.43 24.09 11.4C24.07 11.37 24.05 11.35 24.02 11.32C23.99 11.29 23.97 11.27 23.94 11.24C23.92 11.21 23.89 11.19 23.87 11.16C23.84 11.14 23.82 11.11 23.79 11.09C23.76 11.07 23.74 11.04 23.71 11.02C23.69 10.99 23.66 10.97 23.64 10.95C23.61 10.93 23.58 10.9 23.56 10.88C23.53 10.86 23.51 10.84 23.48 10.82C23.46 10.8 23.43 10.78 23.41 10.76C23.38 10.74 23.36 10.71 23.33 10.69C23.31 10.68 23.28 10.66 23.26 10.64C23.23 10.62 23.21 10.6 23.18 10.58C23.16 10.56 23.13 10.54 23.11 10.53C23.08 10.51 23.06 10.49 23.04 10.48C23.01 10.46 22.99 10.44 22.96 10.43C22.94 10.41 22.92 10.4 22.89 10.38C22.87 10.37 22.85 10.35 22.83 10.34C22.81 10.33 22.78 10.31 22.76 10.3C22.74 10.29 22.72 10.28 22.7 10.27C22.68 10.25 22.66 10.24 22.65 10.23C22.63 10.22 22.61 10.21 22.59 10.2C22.58 10.19 22.56 10.19 22.54 10.18C22.53 10.17 22.51 10.16 22.49 10.15C22.48 10.15 22.47 10.14 22.45 10.13C22.44 10.13 22.43 10.12 22.41 10.12C22.4 10.11 22.39 10.11 22.38 10.11C22.37 10.1 22.36 10.1 22.35 10.1C22.34 10.09 22.32 10.09 22.31 10.09C22.24 10.08 22.19 10.08 22.14 10.08L22.14 10.08Z" />
			<path id="path5066" class="shp1" d="M22.1 9.92C21.87 9.93 21.9 10.14 22.26 10.27C22.27 10.27 22.28 10.28 22.29 10.28C22.3 10.28 22.31 10.29 22.31 10.29C22.33 10.3 22.34 10.3 22.36 10.31C22.37 10.31 22.39 10.32 22.4 10.32C22.42 10.33 22.44 10.34 22.45 10.34C22.47 10.35 22.49 10.36 22.51 10.36C22.53 10.37 22.55 10.38 22.57 10.39C22.59 10.39 22.61 10.4 22.63 10.41C22.65 10.42 22.67 10.43 22.69 10.44C22.71 10.45 22.73 10.46 22.75 10.47C22.78 10.48 22.8 10.49 22.82 10.5C22.84 10.51 22.86 10.52 22.88 10.53C22.9 10.54 22.92 10.55 22.94 10.57C22.96 10.58 22.99 10.59 23.01 10.61C23.03 10.62 23.05 10.64 23.07 10.65C23.09 10.67 23.12 10.68 23.14 10.7C23.16 10.72 23.18 10.74 23.2 10.75C23.23 10.77 23.25 10.79 23.27 10.81C23.29 10.83 23.31 10.84 23.33 10.86C23.35 10.88 23.36 10.89 23.38 10.91C23.74 11.26 23.96 11.03 23.6 10.68C23.58 10.66 23.57 10.65 23.55 10.63C23.53 10.61 23.5 10.59 23.48 10.56C23.45 10.54 23.43 10.52 23.4 10.5C23.38 10.48 23.36 10.46 23.33 10.44C23.31 10.43 23.28 10.41 23.26 10.39C23.23 10.37 23.21 10.36 23.18 10.34C23.16 10.32 23.14 10.31 23.11 10.29C23.09 10.28 23.06 10.26 23.04 10.25C23.01 10.24 22.99 10.22 22.96 10.21C22.94 10.2 22.92 10.19 22.89 10.18C22.87 10.17 22.85 10.15 22.82 10.14C22.8 10.13 22.78 10.12 22.75 10.11C22.73 10.1 22.71 10.1 22.68 10.09C22.66 10.08 22.64 10.07 22.62 10.06C22.6 10.06 22.58 10.05 22.57 10.04C22.55 10.04 22.53 10.03 22.51 10.02C22.5 10.02 22.48 10.01 22.47 10C22.46 10 22.44 10 22.43 9.99C22.42 9.99 22.41 9.98 22.4 9.98C22.39 9.98 22.38 9.97 22.37 9.97C22.28 9.94 22.21 9.92 22.14 9.92C22.13 9.92 22.11 9.92 22.1 9.92L22.1 9.92Z" />
			<path id="path5096" class="shp2" d="M21.96 9.97C21.8 9.96 21.78 10.15 22.05 10.37C22.06 10.38 22.06 10.38 22.07 10.39C22.46 10.72 22.66 10.47 22.27 10.14C22.27 10.14 22.27 10.13 22.26 10.13C22.14 10.03 22.03 9.98 21.96 9.97Z" />
			<path id="path5294" class="shp3" d="M17.9 8.08C17.79 7.83 18.1 7.54 18.24 7.46C18.37 7.38 18.53 7.32 18.64 7.3C18.87 7.24 19.19 7.25 19.39 7.31C19.59 7.37 19.76 7.51 19.93 7.66C20.09 7.81 20.2 8 20.32 8.22C20.45 8.43 20.56 8.68 20.65 8.94C20.74 9.19 20.81 9.47 20.85 9.75C20.9 10.02 20.92 10.3 20.92 10.58C20.92 10.85 20.9 11.11 20.85 11.36" />
			<path id="path5304" class="shp4" d="M20.85 11.36C20.83 11.15 20.78 10.95 20.71 10.77C20.64 10.59 20.54 10.41 20.43 10.25C20.32 10.09 20.2 9.94 20.06 9.8C19.92 9.66 19.8 9.54 19.67 9.39C19.47 9.18 19.32 9.1 19.18 8.96C18.97 8.76 18.97 8.8 18.73 8.7C18.56 8.62 18.34 8.59 18.2 8.49C18.07 8.39 17.92 8.24 17.9 8.08" />
			<path id="path5306" class="shp5" d="M20.8 10.85C20.77 10.78 20.72 10.64 20.67 10.55C20.53 10.26 20.38 10.05 20.1 9.75C20.01 9.66 19.95 9.58 19.95 9.58C19.95 9.57 19.93 9.56 19.92 9.55C19.88 9.52 19.72 9.37 19.72 9.36C19.73 9.35 19.55 9.19 19.4 9.07C19.33 9.01 19.23 8.93 19.19 8.89C19.09 8.8 19.02 8.75 18.94 8.72C18.91 8.71 18.87 8.69 18.86 8.69C18.84 8.68 18.81 8.67 18.78 8.66C18.75 8.65 18.71 8.62 18.68 8.61C18.65 8.59 18.6 8.57 18.57 8.57C18.51 8.56 18.45 8.54 18.42 8.53C18.42 8.52 18.41 8.52 18.4 8.52C18.4 8.53 18.4 8.53 18.4 8.52C18.4 8.51 18.39 8.5 18.38 8.5C18.38 8.5 18.36 8.5 18.35 8.49C18.34 8.47 18.3 8.46 18.29 8.47C18.28 8.48 18.2 8.42 18.13 8.35C17.95 8.17 17.89 7.99 17.98 7.82C18.01 7.75 18.2 7.54 18.21 7.55C18.22 7.56 18.22 7.55 18.22 7.55C18.22 7.53 18.32 7.48 18.37 7.47C18.4 7.47 18.43 7.45 18.45 7.43C18.53 7.35 18.79 7.33 19.25 7.36C19.41 7.37 19.41 7.37 19.44 7.41C19.47 7.44 19.55 7.48 19.57 7.46C19.58 7.45 19.65 7.51 19.68 7.54C19.69 7.56 19.71 7.57 19.72 7.57C19.74 7.58 19.77 7.6 19.79 7.63C19.81 7.65 19.83 7.67 19.83 7.67C19.85 7.66 19.98 7.8 19.99 7.84C20 7.87 20.01 7.89 20.04 7.9C20.06 7.91 20.08 7.93 20.09 7.96C20.1 8.01 20.14 8.07 20.16 8.07C20.17 8.07 20.2 8.11 20.2 8.14C20.2 8.19 20.23 8.23 20.26 8.22C20.26 8.22 20.27 8.24 20.28 8.26C20.29 8.28 20.3 8.3 20.3 8.3C20.3 8.3 20.31 8.32 20.31 8.35C20.31 8.39 20.33 8.42 20.36 8.43C20.38 8.43 20.4 8.48 20.41 8.54C20.41 8.6 20.44 8.65 20.47 8.65C20.49 8.65 20.5 8.7 20.52 8.78C20.52 8.82 20.54 8.86 20.55 8.87C20.56 8.87 20.56 8.88 20.56 8.89C20.56 8.9 20.57 8.9 20.57 8.9C20.59 8.9 20.62 9.02 20.63 9.09C20.63 9.16 20.66 9.23 20.68 9.23C20.68 9.23 20.69 9.24 20.69 9.25C20.69 9.26 20.7 9.3 20.71 9.35C20.72 9.4 20.73 9.46 20.73 9.5C20.73 9.56 20.75 9.63 20.78 9.69C20.79 9.71 20.83 9.99 20.85 10.17C20.86 10.31 20.86 10.84 20.85 10.93L20.84 10.99L20.8 10.85Z" />
			<path id="path5308" class="shp5" d="M20.78 10.7C20.7 10.49 20.52 10.19 20.37 10.01C20.13 9.71 19.71 9.28 19.44 9.06C19.35 8.98 19.23 8.88 19.18 8.84C19.08 8.74 19.04 8.72 18.89 8.66C18.82 8.63 18.74 8.59 18.7 8.58C18.67 8.56 18.6 8.54 18.56 8.53C18.52 8.52 18.45 8.5 18.41 8.48C18.37 8.45 18.32 8.43 18.3 8.43C18.26 8.42 18.09 8.26 18.04 8.18C18.02 8.14 18 8.08 17.99 8.05C17.96 7.91 18 7.81 18.16 7.65C18.26 7.55 18.3 7.53 18.39 7.5C18.42 7.49 18.46 7.47 18.48 7.46C18.5 7.44 18.55 7.42 18.58 7.41C18.68 7.39 18.98 7.38 19.21 7.4C19.38 7.41 19.39 7.41 19.42 7.44C19.46 7.47 19.52 7.5 19.55 7.5C19.57 7.5 19.6 7.52 19.62 7.54C19.64 7.56 19.68 7.59 19.7 7.61C19.77 7.65 19.93 7.81 19.95 7.86C19.96 7.88 19.99 7.91 20.01 7.92C20.02 7.94 20.05 7.98 20.07 8.01C20.08 8.04 20.11 8.08 20.13 8.09C20.14 8.11 20.16 8.14 20.17 8.16C20.18 8.21 20.2 8.25 20.23 8.25C20.24 8.25 20.26 8.3 20.27 8.37C20.28 8.4 20.29 8.42 20.32 8.45C20.35 8.47 20.36 8.49 20.37 8.55C20.38 8.62 20.41 8.67 20.44 8.68C20.45 8.69 20.46 8.71 20.48 8.77C20.49 8.82 20.51 8.87 20.52 8.89C20.56 8.94 20.57 8.99 20.59 9.11C20.6 9.16 20.62 9.22 20.63 9.23C20.66 9.27 20.68 9.38 20.7 9.49C20.7 9.54 20.71 9.61 20.73 9.66C20.77 9.79 20.8 10.06 20.81 10.34C20.82 10.48 20.82 10.64 20.81 10.68L20.81 10.77L20.78 10.7Z" />
			<path id="path5310" class="shp5" d="M20.71 10.47C20.48 10.03 20 9.48 19.35 8.93C19.12 8.73 19.06 8.69 18.95 8.65C18.91 8.63 18.83 8.59 18.76 8.56C18.69 8.53 18.61 8.5 18.58 8.49C18.54 8.49 18.46 8.46 18.4 8.43C18.3 8.39 18.28 8.38 18.19 8.29C18.07 8.18 18.03 8.09 18.02 7.99C18.01 7.9 18.05 7.82 18.17 7.7C18.24 7.62 18.28 7.6 18.34 7.57C18.38 7.55 18.45 7.51 18.49 7.49C18.61 7.44 18.69 7.43 19.05 7.43C19.37 7.44 19.34 7.43 19.46 7.51C19.49 7.52 19.52 7.53 19.53 7.53C19.55 7.53 19.73 7.67 19.82 7.75C19.85 7.78 19.88 7.82 19.9 7.85C19.91 7.87 19.94 7.91 19.96 7.93C20.01 7.99 20.09 8.1 20.13 8.19C20.15 8.23 20.18 8.28 20.2 8.28C20.21 8.29 20.22 8.32 20.23 8.34C20.24 8.4 20.25 8.42 20.29 8.46C20.3 8.48 20.32 8.53 20.34 8.58C20.36 8.63 20.38 8.68 20.4 8.7C20.42 8.72 20.44 8.76 20.44 8.79C20.45 8.81 20.47 8.87 20.49 8.91C20.51 8.95 20.54 9.04 20.55 9.09C20.56 9.15 20.59 9.23 20.6 9.26C20.63 9.34 20.64 9.36 20.65 9.48C20.66 9.52 20.68 9.61 20.69 9.67C20.71 9.74 20.73 9.84 20.74 9.91C20.76 10.05 20.78 10.42 20.78 10.52L20.77 10.59L20.71 10.47Z" />
			<path id="path5312" class="shp5" d="M20.7 10.36C20.54 10.09 20.26 9.73 19.91 9.39C19.65 9.13 19.23 8.77 19.09 8.68C19.01 8.63 18.71 8.5 18.56 8.45C18.37 8.39 18.3 8.35 18.2 8.25C18.1 8.14 18.06 8.06 18.06 7.98C18.06 7.89 18.09 7.83 18.21 7.72C18.3 7.62 18.32 7.61 18.45 7.55C18.59 7.49 18.61 7.49 18.73 7.48C18.8 7.47 18.96 7.47 19.09 7.47L19.33 7.48L19.44 7.54C19.57 7.6 19.7 7.69 19.79 7.78C19.88 7.87 20 8.04 20.06 8.14C20.09 8.19 20.13 8.26 20.15 8.28C20.17 8.31 20.19 8.35 20.2 8.37C20.2 8.4 20.22 8.44 20.24 8.46C20.25 8.48 20.28 8.54 20.31 8.59C20.33 8.64 20.35 8.7 20.37 8.72C20.39 8.76 20.41 8.79 20.48 9C20.59 9.34 20.68 9.72 20.71 10C20.72 10.11 20.74 10.42 20.73 10.42C20.73 10.42 20.71 10.39 20.7 10.36L20.7 10.36Z" />
			<path id="path5314" class="shp5" d="M20.61 10.15C20.37 9.81 19.97 9.37 19.49 8.95C19.23 8.73 19.13 8.65 19.01 8.59C18.89 8.54 18.7 8.46 18.55 8.41C18.49 8.38 18.41 8.35 18.38 8.34C18.31 8.3 18.17 8.16 18.13 8.1C18.07 7.97 18.09 7.89 18.24 7.75C18.31 7.67 18.35 7.64 18.43 7.61C18.62 7.52 18.6 7.52 18.97 7.51L19.3 7.51L19.4 7.56C19.75 7.73 19.96 7.98 20.26 8.59C20.4 8.88 20.46 9.05 20.56 9.41C20.64 9.73 20.7 10.12 20.69 10.23C20.68 10.27 20.68 10.26 20.61 10.15L20.61 10.15Z" />
			<path id="path5316" class="shp5" d="M20.57 10.04C20.34 9.71 19.82 9.18 19.34 8.77C19.14 8.61 19.02 8.54 18.62 8.39C18.39 8.3 18.33 8.27 18.24 8.18C18.14 8.06 18.12 7.97 18.18 7.87C18.24 7.78 18.35 7.69 18.47 7.63C18.53 7.6 18.6 7.58 18.64 7.57C18.67 7.56 18.83 7.56 18.99 7.55L19.29 7.54L19.39 7.6C19.65 7.73 19.83 7.9 20.02 8.22C20.11 8.38 20.26 8.66 20.33 8.82C20.45 9.11 20.57 9.57 20.63 9.95C20.65 10.14 20.65 10.15 20.57 10.04L20.57 10.04Z" />
			<path id="path5318" class="shp5" d="M20.54 9.94C20.32 9.65 19.85 9.16 19.43 8.81C19.19 8.6 19.08 8.53 18.69 8.38C18.56 8.33 18.44 8.28 18.41 8.26C18.34 8.23 18.24 8.12 18.21 8.05C18.18 7.99 18.18 7.99 18.19 7.94C18.21 7.88 18.35 7.74 18.45 7.68C18.59 7.61 18.62 7.6 18.96 7.59L19.28 7.58L19.35 7.62C19.61 7.75 19.79 7.93 19.98 8.23C20.07 8.38 20.24 8.72 20.31 8.88C20.41 9.13 20.5 9.47 20.56 9.78C20.57 9.87 20.59 9.96 20.59 9.97C20.6 9.99 20.6 10 20.59 10C20.59 10 20.57 9.97 20.54 9.94L20.54 9.94Z" />
			<path id="path5320" class="shp5" d="M20.41 9.72C20.26 9.54 19.93 9.2 19.72 9.01C19.28 8.61 19.17 8.53 18.78 8.37C18.46 8.24 18.41 8.22 18.35 8.16C18.28 8.1 18.22 8.02 18.22 7.98C18.22 7.91 18.37 7.77 18.5 7.7C18.6 7.65 18.68 7.64 19.01 7.63L19.27 7.62L19.36 7.67C19.68 7.84 19.86 8.06 20.13 8.6C20.28 8.91 20.37 9.13 20.44 9.43C20.49 9.61 20.53 9.84 20.53 9.85C20.52 9.85 20.47 9.79 20.41 9.72L20.41 9.72Z" />
			<path id="path5322" class="shp5" d="M20.42 9.67C20.35 9.58 19.81 9.04 19.65 8.9C19.28 8.57 19.16 8.49 18.78 8.33C18.42 8.19 18.35 8.14 18.28 8.03L18.26 7.98L18.28 7.94C18.31 7.89 18.43 7.78 18.5 7.75C18.53 7.73 18.58 7.71 18.62 7.7C18.69 7.68 19 7.66 19.17 7.66C19.26 7.66 19.27 7.66 19.35 7.71C19.65 7.87 19.83 8.09 20.08 8.59C20.19 8.82 20.27 8.98 20.32 9.16C20.38 9.32 20.46 9.67 20.46 9.7C20.46 9.71 20.44 9.7 20.42 9.67L20.42 9.67Z" />
			<path id="path5324" class="shp5" d="M20.07 9.26C19.44 8.63 19.27 8.5 18.75 8.28C18.45 8.15 18.37 8.1 18.32 8.01C18.3 7.97 18.31 7.95 18.4 7.87C18.53 7.75 18.61 7.73 18.99 7.71C19.23 7.69 19.26 7.7 19.37 7.76C19.6 7.89 19.78 8.1 19.97 8.46C20.06 8.63 20.18 8.89 20.24 9.03C20.3 9.2 20.41 9.58 20.39 9.58C20.39 9.58 20.24 9.43 20.07 9.26Z" />
			<path id="path5338" class="shp5" d="M20.12 9.26C20.02 9.15 19.85 8.99 19.75 8.89C19.38 8.55 19.22 8.45 18.78 8.25C18.67 8.2 18.54 8.14 18.5 8.12C18.43 8.08 18.35 8.01 18.35 7.98C18.35 7.96 18.49 7.84 18.55 7.81C18.63 7.77 18.81 7.75 19.05 7.75L19.27 7.75L19.36 7.8C19.65 7.97 19.88 8.31 20.14 8.9C20.2 9.04 20.33 9.44 20.32 9.45C20.32 9.45 20.23 9.36 20.12 9.26L20.12 9.26Z" />
			<path id="path5340" class="shp5" d="M20.23 9.31C20.21 9.28 19.71 8.81 19.6 8.71C19.35 8.49 19.21 8.41 18.81 8.23C18.55 8.11 18.48 8.07 18.42 8.02L18.39 7.99L18.44 7.95C18.5 7.88 18.57 7.84 18.64 7.82C18.74 7.8 18.91 7.79 19.09 7.79L19.26 7.79L19.32 7.82C19.59 7.99 19.82 8.28 20.04 8.76C20.13 8.96 20.25 9.28 20.24 9.31C20.24 9.31 20.23 9.31 20.23 9.31L20.23 9.31Z" />
			<path id="path5342" class="shp5" d="M19.99 9.02C19.46 8.52 19.35 8.44 18.84 8.2C18.55 8.06 18.45 8.01 18.45 7.99C18.45 7.98 18.52 7.92 18.56 7.9C18.57 7.89 18.62 7.87 18.65 7.86C18.72 7.84 19 7.82 19.16 7.82C19.25 7.82 19.25 7.82 19.33 7.87C19.56 8.02 19.73 8.24 19.92 8.62C20.02 8.82 20.16 9.14 20.15 9.16C20.15 9.16 20.08 9.1 19.99 9.02Z" />
			<path id="path5344" class="shp5" d="M19.89 8.87C19.49 8.5 19.36 8.41 18.86 8.17L18.5 7.99L18.54 7.96C18.61 7.9 18.77 7.87 19.08 7.86L19.23 7.86L19.3 7.9C19.34 7.92 19.42 7.99 19.49 8.06C19.63 8.2 19.75 8.37 19.87 8.61C19.96 8.78 20.07 9.02 20.06 9.02C20.06 9.03 19.98 8.96 19.89 8.87L19.89 8.87Z" />
			<path id="path5346" class="shp5" d="M19.82 8.75C19.51 8.47 19.34 8.36 18.87 8.13C18.71 8.05 18.58 7.98 18.58 7.98C18.58 7.97 18.67 7.94 18.75 7.92C18.79 7.92 18.92 7.91 19.03 7.9L19.23 7.9L19.3 7.95C19.45 8.06 19.58 8.2 19.7 8.38C19.75 8.47 19.96 8.87 19.96 8.88C19.95 8.88 19.89 8.82 19.82 8.75L19.82 8.75Z" />
			<path id="path5348" class="shp5" d="M19.71 8.61C19.51 8.44 19.34 8.33 18.94 8.12L18.67 7.98L18.72 7.97C18.75 7.96 18.87 7.95 19 7.94L19.22 7.93L19.28 7.98C19.44 8.1 19.59 8.27 19.69 8.44C19.74 8.53 19.82 8.68 19.82 8.69C19.82 8.71 19.8 8.69 19.71 8.61Z" />
			<path id="path5350" class="shp5" d="M19.65 8.51C19.52 8.4 19.31 8.27 18.99 8.11C18.88 8.05 18.8 8 18.81 8C18.82 7.99 18.91 7.99 19.01 7.98L19.2 7.97L19.25 8C19.32 8.05 19.48 8.21 19.55 8.3C19.62 8.39 19.71 8.55 19.71 8.55C19.7 8.56 19.68 8.54 19.65 8.51L19.65 8.51Z" />
			<path id="path5352" class="shp5" d="M19.48 8.35C19.43 8.3 19.17 8.16 19.03 8.09L18.93 8.03L18.98 8.02C19.01 8.02 19.07 8.02 19.12 8.01L19.2 8.01L19.27 8.07C19.34 8.13 19.47 8.26 19.52 8.32C19.57 8.39 19.56 8.4 19.48 8.35L19.48 8.35Z" />
			<path id="path5354" class="shp5" d="M19.31 8.19C19.29 8.18 19.22 8.15 19.17 8.12C19.06 8.06 19.06 8.05 19.15 8.05C19.19 8.05 19.2 8.06 19.28 8.13C19.37 8.22 19.38 8.24 19.31 8.19Z" />
			<path id="path5384" class="shp6" d="M19.32 8.43C19.09 8.43 18.9 8.3 18.9 8.14C18.9 7.98 19.09 7.85 19.32 7.85C19.56 7.85 19.75 7.98 19.75 8.14C19.75 8.3 19.56 8.43 19.32 8.43Z" />
			<path id="path5386" class="shp6" d="M19.98 9.09C19.83 9.09 19.71 8.98 19.71 8.85C19.71 8.72 19.83 8.61 19.98 8.61C20.13 8.61 20.26 8.72 20.26 8.85C20.26 8.98 20.13 9.09 19.98 9.09Z" />
			<path id="path5388" class="shp6" d="M20.12 8.61C20.1 8.61 20.09 8.58 20.09 8.54C20.09 8.5 20.1 8.46 20.12 8.46C20.13 8.46 20.14 8.5 20.14 8.54C20.14 8.58 20.13 8.61 20.12 8.61Z" />
			<path id="path5392" class="shp6" d="M19.05 7.66C18.92 7.66 18.8 7.63 18.8 7.6C18.8 7.56 18.92 7.54 19.05 7.54C19.19 7.54 19.31 7.56 19.31 7.6C19.31 7.63 19.19 7.66 19.05 7.66Z" />
			<path id="path5394" class="shp6" d="M20.32 9.57C20.27 9.57 20.23 9.51 20.23 9.44C20.23 9.36 20.27 9.31 20.32 9.31C20.37 9.31 20.41 9.36 20.41 9.44C20.41 9.51 20.37 9.57 20.32 9.57Z" />
			<path id="rect5402" class="shp7" d="M20.33 9.65L20.56 9.65L20.56 9.83L20.33 9.83L20.33 9.65Z" />
			<path id="rect5404" class="shp7" d="M20.62 9.98L20.78 9.98L20.78 10.28L20.62 10.28L20.62 9.98Z" />
			<path id="rect5406" class="shp7" d="M20.78 10.7L20.87 10.7L20.87 10.87L20.78 10.87L20.78 10.7Z" />
			<path id="rect5408" class="shp7" d="M20.82 10.95L20.86 10.95L20.86 11.05L20.82 11.05L20.82 10.95Z" />
			<path id="rect5410" class="shp7" d="M20.74 10.38L20.8 10.38L20.8 10.55L20.74 10.55L20.74 10.38Z" />
			<path id="path5652" class="shp0" d="M17.72 6.25C17.68 6.11 17.15 5.79 16.86 6.02C16.06 6.66 17.38 6.89 17.46 7.18C17.51 7.29 17.39 7.49 17.51 7.49C17.99 7.49 17.92 6.47 17.72 6.25Z" />
			<path id="path4601" class="shp8" d="M11.8 2.57C8.53 6.04 2.15 16.49 6.46 22.11" />
			<path id="path4952" class="shp9" d="M22.16 5.22C25.68 16.95 20.43 25.68 17.08 25.64" />
			<path id="path3764" class="shp10" d="M10.47 1.7C9.99 2.18 -7.01 20.44 11.37 25.19" />
			<path id="path4571" class="shp10" d="M24.47 5.31C25.34 13.82 27.62 28.87 11.37 25.19" />
			<path id="path4573" class="shp11" d="M10.47 1.7C24.47 5.31 24.47 5.31 24.47 5.31" />
			<path id="path4577" class="shp10" d="M11.37 25.19C7.82 37.52 7.82 37.52 7.82 37.52" />
			<path id="path4579" class="shp10" d="M4.27 36.55L11.44 38.49" />
			<path id="path4581" class="shp10" d="M4.27 36.55L11.44 38.49" />
		</g>
	</g>
	<text id="Pinots.Games " style="transform: matrix(1,0,0,1,23.6,35.4)" >
		<tspan x="0" y="0" class="txt12">Pinots.Games</tspan>
	</text>
</svg>